<svg id="Layer_1" data-name="Layer 1" xmlns="http://www.w3.org/2000/svg" viewBox="0 0 28 28"><defs><style>.cls-1{fill:#fff;}</style></defs><g id="Group_557" data-name="Group 557"><path id="Path_54" data-name="Path 54" class="cls-1" d="M23,3V0H21V3H7V0H5V3H5A4,4,0,0,0,1,7V24c0,2.21.78,4,3,4H23a4,4,0,0,0,4-4V7a3.72,3.72,0,0,0-4-4ZM5.08,5H23a2.45,2.45,0,0,1,2,2H3A2.45,2.45,0,0,1,5.08,5ZM22,26H6c-2.19,0-3-.92-3-3L3.12,9h22L25,23A2.65,2.65,0,0,1,22,26Z"/><rect id="Rectangle_1124" data-name="Rectangle 1124" class="cls-1" x="6" y="12" width="4" height="4.07"/><rect id="Rectangle_1125" data-name="Rectangle 1125" class="cls-1" x="12" y="12.05" width="4" height="4.02"/><rect id="Rectangle_1126" data-name="Rectangle 1126" class="cls-1" x="18" y="12.05" width="4" height="4.02"/><rect id="Rectangle_1127" data-name="Rectangle 1127" class="cls-1" x="6" y="18" width="4" height="4"/><rect id="Rectangle_1128" data-name="Rectangle 1128" class="cls-1" x="12" y="18" width="4" height="4"/><rect id="Rectangle_1129" data-name="Rectangle 1129" class="cls-1" x="18" y="18" width="4" height="4"/></g></svg>