<?xml version="1.0" encoding="utf-8"?>
<!-- Generator: Adobe Illustrator 23.0.3, SVG Export Plug-In . SVG Version: 6.00 Build 0)  -->
<svg focusable="false" version="1.1" id="Layer_1" xmlns="http://www.w3.org/2000/svg" xmlns:xlink="http://www.w3.org/1999/xlink" x="0px" y="0px"
	 viewBox="0 0 127.1 39.4" style="enable-background:new 0 0 127.1 39.4;" xml:space="preserve">
<title>Digital Scotland</title>
<style type="text/css">
	.st0{fill:#0065bd;}
	.st1{fill:#002d54;}
</style>
<g>
	<path class="st1" d="M121.8,34.2c-1.6,0-2.7-1.3-2.7-3.1c0-1.8,1.1-3.1,2.7-3.1c0.9,0,2,0.5,2.4,1.2V33
		C123.8,33.7,122.8,34.2,121.8,34.2 M127.1,36.5V21.6h-2.8v5.5c-0.8-1.1-2-1.6-3.3-1.6c-2.7,0-4.8,2.1-4.8,5.6
		c0,3.6,2.1,5.7,4.8,5.7c1.3,0,2.5-0.6,3.3-1.6v1.4H127.1z M114.8,36.5v-7.6c0-2.1-1.1-3.4-3.5-3.4c-1.7,0-3.1,0.8-3.8,1.6v-1.4
		h-2.8v10.8h2.8v-7.3c0.5-0.6,1.3-1.2,2.4-1.2c1.2,0,2,0.5,2,2v6.5H114.8z M97.4,34.2c-1.6,0-2.7-1.3-2.7-3.1c0-1.8,1.1-3.1,2.7-3.1
		c0.9,0,2,0.5,2.4,1.2V33C99.3,33.7,98.3,34.2,97.4,34.2 M102.7,36.5V25.7h-2.8v1.4c-0.9-1.1-2-1.6-3.3-1.6c-2.7,0-4.8,2.1-4.8,5.6
		c0,3.6,2.1,5.7,4.8,5.7c1.3,0,2.5-0.6,3.3-1.6v1.4H102.7z M89.6,36.7c1.2,0,1.9-0.3,2.4-0.7l-0.6-2.2c-0.2,0.2-0.6,0.3-1,0.3
		c-0.6,0-1-0.5-1-1.2V21.6h-2.8v12.2C86.5,35.7,87.6,36.7,89.6,36.7 M83.3,36.7c1.2,0,1.9-0.3,2.4-0.7L85,33.9
		c-0.2,0.2-0.6,0.3-1,0.3c-0.6,0-1-0.5-1-1.2v-4.8h2.2v-2.5h-2.2v-2.9h-2.8v2.9h-1.8v2.5h1.8v5.6C80.3,35.7,81.3,36.7,83.3,36.7
		 M72.6,34.2c-1.8,0-2.7-1.4-2.7-3.1c0-1.7,1-3.1,2.7-3.1c1.8,0,2.8,1.4,2.8,3.1C75.3,32.8,74.3,34.2,72.6,34.2 M72.6,36.7
		c3.6,0,5.7-2.6,5.7-5.7s-2.1-5.6-5.7-5.6c-3.5,0-5.7,2.6-5.7,5.6S69,36.7,72.6,36.7 M62.5,36.7c2.2,0,3.5-1,4.3-2L64.9,33
		c-0.5,0.7-1.3,1.2-2.3,1.2c-1.7,0-2.9-1.3-2.9-3.1c0-1.9,1.2-3.1,2.9-3.1c1,0,1.8,0.4,2.3,1.2l1.8-1.7c-0.7-1-2-1.9-4.3-1.9
		c-3.3,0-5.7,2.3-5.7,5.6C56.8,34.4,59.2,36.7,62.5,36.7 M50.1,36.7c4,0,5.9-2,5.9-4.8c0-5.5-8.5-4-8.5-6.3c0-0.9,0.8-1.5,2.1-1.5
		c1.5,0,3.1,0.5,4.3,1.6l1.8-2.4c-1.5-1.4-3.4-2.1-5.8-2.1c-3.5,0-5.6,2-5.6,4.5c0,5.6,8.5,3.8,8.5,6.4c0,0.9-0.8,1.6-2.6,1.6
		c-2,0-3.7-0.9-4.7-2l-1.7,2.5C45.2,35.8,47.3,36.7,50.1,36.7"/>
	<path class="st1" d="M104.3,18.6c1.2,0,1.9-0.3,2.4-0.7l-0.6-2.2c-0.2,0.2-0.6,0.3-1,0.3c-0.6,0-1-0.5-1-1.2V3.5h-2.8v12.2
		C101.2,17.6,102.3,18.6,104.3,18.6 M93.9,16.1c-1.6,0-2.7-1.3-2.7-3.1c0-1.8,1.1-3.1,2.7-3.1c0.9,0,2,0.5,2.4,1.2v3.8
		C95.9,15.6,94.9,16.1,93.9,16.1 M99.2,18.4V7.6h-2.8V9c-0.9-1.1-2-1.6-3.3-1.6c-2.7,0-4.8,2.1-4.8,5.6c0,3.6,2.1,5.7,4.8,5.7
		c1.3,0,2.5-0.6,3.3-1.6v1.4H99.2z M85.7,18.6c1.2,0,1.9-0.3,2.4-0.7l-0.6-2.2c-0.2,0.2-0.6,0.3-1,0.3c-0.6,0-1-0.5-1-1.2v-4.8h2.2
		V7.6h-2.2V4.7h-2.8v2.9h-1.8v2.5h1.8v5.6C82.7,17.6,83.7,18.6,85.7,18.6 M80,7.6h-2.8v10.8H80V7.6z M78.6,6.5
		c0.9,0,1.7-0.8,1.7-1.7c0-0.9-0.8-1.7-1.7-1.7c-0.9,0-1.7,0.7-1.7,1.7C77,5.7,77.7,6.5,78.6,6.5 M69.9,15.8c-1.6,0-2.7-1.1-2.7-3
		c0-1.8,1.1-3,2.7-3c0.9,0,1.9,0.5,2.4,1.2v3.5C71.9,15.3,70.8,15.8,69.9,15.8 M69.4,22.7c2.6,0,5.8-1,5.8-5.1v-10h-2.8V9
		c-0.9-1.1-2-1.6-3.3-1.6c-2.7,0-4.7,2-4.7,5.5c0,3.6,2.1,5.5,4.7,5.5c1.3,0,2.5-0.6,3.3-1.7v1c0,2.2-1.6,2.8-3,2.8
		c-1.3,0-2.5-0.4-3.4-1.3l-1.3,2C66.1,22.3,67.5,22.7,69.4,22.7 M62.9,7.6h-2.8v10.8h2.8V7.6z M61.5,6.5c0.9,0,1.7-0.8,1.7-1.7
		c0-0.9-0.8-1.7-1.7-1.7c-0.9,0-1.7,0.7-1.7,1.7C59.8,5.7,60.6,6.5,61.5,6.5 M50.7,15.6H48V6.3h2.7c3,0,4.6,2,4.6,4.6
		C55.4,13.5,53.6,15.6,50.7,15.6 M50.7,18.4c4.6,0,7.9-2.9,7.9-7.4c0-4.5-3.2-7.4-7.9-7.4h-5.9v14.8H50.7z"/>
	<path class="st0" d="M33.3,15.3L33.3,15.3c0,0-2.3-3.3-6.7-5.9c2.6,5.3,1.1,10.5,1.1,10.5c0.4-4.7-0.9-8.5-2.6-11.3
		c-2.8-1.4-6.3-2.4-10.5-2.3c0,0,4.7-0.8,9.7,1c-2.5-3.5-5.5-5.3-5.5-5.3l0,0c3.4,1.7,5.6,3.8,7.1,6C28.5,9.2,31.3,11.5,33.3,15.3
		 M35.5,19.7C35.5,8.8,26.7,0,15.8,0c-0.2,0-0.4,0-0.6,0H0v39.4h15.8v0c0,0,0,0,0.1,0C26.7,39.4,35.5,30.6,35.5,19.7"/>
</g>
</svg>
