<?xml version="1.0" encoding="utf-8"?>
<svg focusable="false" version="1.1" id="ogl-logo" xmlns="http://www.w3.org/2000/svg" xmlns:xlink="http://www.w3.org/1999/xlink" x="0px" y="0px"
 viewBox="0 0 852.16 345.09" xml:space="preserve">
    <defs>
        <style>.white{fill:#fff;}</style>
    </defs>
    <title>Open Government License</title>
    <polygon class="white" points="743.3 251.79 743.3 0.2 653.9 57.2 653.9 341.2 852.16 341.2 852.16 251.79 743.3 251.79"></polygon>
    <path class="white" d="M599.62,312.56a83.12,83.12,0,1,1,15.26-107.08l75.36-48a172.35,172.35,0,0,0-295.59,7.84A172.61,172.61,0,0,0,244.49,77.59C149.35,77.59,72,155,72,250.14s77.4,172.54,172.54,172.54A172.6,172.6,0,0,0,394.65,335a172.29,172.29,0,0,0,263.9,44.78l34.25,39.07h5.33V264H557ZM244.49,333.28a83.14,83.14,0,1,1,83.14-83.14A83.24,83.24,0,0,1,244.49,333.28Z" transform="translate(-71.95 -77.59)"/>
</svg>
