<?xml version="1.0" encoding="utf-8"?>
<svg focusable="false" version="1.1" id="sg-logo" xmlns="http://www.w3.org/2000/svg" xmlns:xlink="http://www.w3.org/1999/xlink" x="0px" y="0px"
 viewBox="0 0 165 30" style="enable-background:new 0 0 127.1 39.4;" xml:space="preserve">
    <defs>
        <style>
            .white {
                fill: #fff;
            }
        </style>
    </defs>
    <switch>
        <g>
            <rect class="white" x="57" width="1" height="30"></rect>
            <polygon class="white" points="6.46 0 25.48 11.14 44.5 0 6.46 0 6.46 0"></polygon>
            <polygon class="white" points="6.46 30 25.48 18.86 44.5 30 6.46 30 6.46 30"></polygon>
            <polygon class="white" points="0 3.18 0 26.16 18.91 14.67 0 3.18 0 3.18"></polygon>
            <polygon class="white" points="51 3.18 51 26.16 32.09 14.67 51 3.18 51 3.18"></polygon>
            <path class="white" d="M69.91,25.21c3.27,0,7.09-1.3,7.09-6.12V7H74V8.26a5.46,5.46,0,0,0-4.46-2.19c-3.46,0-6,2.52-6,6.87s2.65,6.87,6.06,6.87A5.59,5.59,0,0,0,74,17.56v1.52c0,2.85-2.22,3.74-4.13,3.74a5.46,5.46,0,0,1-4.35-1.72l-1.29,2.11a7.81,7.81,0,0,0,5.69,2Zm.48-8c-2.33,0-3.88-1.69-3.88-4.27s1.6-4.29,3.92-4.29A5.33,5.33,0,0,1,74,10.42v5a5.43,5.43,0,0,1-3.61,1.77Zm15.9,2.91a6.71,6.71,0,0,0,6.87-7,6.87,6.87,0,1,0-13.74,0,6.71,6.71,0,0,0,6.87,7Zm0-2.58c-2.47,0-3.85-2.08-3.85-4.46s1.38-4.43,3.85-4.43,3.85,2.08,3.85,4.43-1.36,4.46-3.85,4.46Zm16,2.46,5.46-13h-3.1l-3.91,10L96.87,7H93.74L99.2,20Zm7.39.09a2,2,0,0,0,1.94-2,1.94,1.94,0,0,0-3.88,0,2,2,0,0,0,1.94,2Zm10.11,0c3.6,0,5.57-1.8,5.57-4.18,0-5.32-8.09-3.55-8.09-5.9,0-.94.94-1.66,2.47-1.66a5.46,5.46,0,0,1,4,1.61l1.22-2.05a7.64,7.64,0,0,0-5.18-1.86c-3.38,0-5.26,1.86-5.26,4,0,5.15,8.09,3.27,8.09,5.9,0,1.05-.91,1.77-2.66,1.77a6.87,6.87,0,0,1-4.52-1.86L114.08,18a8.11,8.11,0,0,0,5.73,2.11Zm14.4,0a6,6,0,0,0,5.13-2.38l-1.91-1.8a3.6,3.6,0,0,1-3.08,1.61c-2.41,0-4-1.86-4-4.46s1.63-4.43,4-4.43a3.55,3.55,0,0,1,3.08,1.55l1.91-1.75a6,6,0,0,0-5.13-2.38,6.71,6.71,0,0,0-6.9,7,6.73,6.73,0,0,0,6.9,7Zm13.29,0a6.7,6.7,0,0,0,6.87-7,6.87,6.87,0,1,0-13.74,0,6.7,6.7,0,0,0,6.87,7Zm0-2.58c-2.47,0-3.85-2.08-3.85-4.46s1.39-4.43,3.85-4.43,3.85,2.08,3.85,4.43-1.36,4.46-3.85,4.46Zm13.82,2.58a3.8,3.8,0,0,0,2.67-.86L163.29,17a1.48,1.48,0,0,1-1.14.5c-.83,0-1.14-.69-1.14-1.61V9h3V7h-3V3h-3V7h-2V9h2v7.65c0,2.24,1.07,3.46,3.34,3.46Z"></path>
        </g>
    </switch>
</svg>
