<svg fill="none" height="120" viewBox="0 0 80 120" width="80" xmlns="http://www.w3.org/2000/svg"><path d="m1 119v-118h58.5857l19.4142 19.4142v98.5858z" fill="#fff" stroke="#5e5e5e" stroke-width="2"/><path d="m80 20-20-20v20z" fill="#5e5e5e"/><path d="m1 119v-118h58.5857l19.4142 19.4142v98.5858z" fill="#fff" stroke="#5e5e5e" stroke-width="2"/><path d="m80 20-20-20v20z" fill="#5e5e5e"/><path d="m9.99951 27.5h59.9999v27.5h-59.9999z" fill="#5e5e5e"/><path d="m23.2514 37.1863-3.3837 10.3137h-2.7259l4.6228-12.4414h1.7346zm2.8113 10.3137-3.3923-10.3137-.2734-2.1277h1.7517l4.6484 12.4414zm-.1538-4.6313v2.008h-6.571v-2.008zm9.2542 2.4182v-7.0325h2.4609v9.2456h-2.3157zm.2734-1.897.7263-.0171c0 .6152-.0712 1.1878-.2136 1.7175-.1424.5241-.3561.9799-.6409 1.3672-.2848.3817-.6437.6808-1.0766.8972-.433.2108-.9428.3162-1.5296.3162-.45 0-.8659-.0627-1.2475-.188-.376-.131-.7007-.3332-.9742-.6067-.2677-.2791-.4785-.6352-.6323-1.0681-.1481-.4386-.2222-.9656-.2222-1.5808v-5.9729h2.461v5.99c0 .2734.0313.5041.094.6921.0683.188.1623.3418.282.4615.1196.1196.2592.205.4187.2563.1652.0513.3475.0769.5468.0769.507 0 .9058-.1025 1.1963-.3076.2962-.2051.5042-.4842.6238-.8374.1253-.3589.188-.7577.188-1.1963zm9.5276 2.0935v-11.1084h2.478v13.125h-2.2302zm-5.8448-2.4951v-.1795c0-.7063.0798-1.3472.2393-1.9226.1595-.581.3931-1.0795.7007-1.4953.3076-.4159.6864-.7377 1.1365-.9656.45-.2279.9627-.3418 1.538-.3418.5412 0 1.014.1139 1.4185.3418.4102.2279.7576.5526 1.0425.9741.2905.4159.5241.9086.7007 1.4783.1766.564.3047 1.182.3845 1.8542v.3931c-.0798.6437-.2079 1.2419-.3845 1.7944-.1766.5526-.4102 1.0368-.7007 1.4527-.2849.4101-.6323.7291-1.0425.957s-.8887.3418-1.4355.3418c-.5754 0-1.0881-.1168-1.5381-.3503-.4444-.2336-.8203-.5612-1.128-.9827-.3019-.4216-.5326-.9172-.6921-1.4868-.1595-.5697-.2393-1.1906-.2393-1.8628zm2.461-.1795v.1795c0 .3817.0285.7377.0854 1.0681.0627.3304.1624.6238.2991.8801.1424.2507.3247.4472.5469.5896.2278.1367.5041.2051.8288.2051.4216 0 .7691-.094 1.0425-.282.2734-.1937.4814-.4586.6238-.7947.1481-.3361.2335-.7234.2563-1.1621v-1.1193c-.0171-.3589-.0683-.6808-.1538-.9656-.0797-.2905-.1994-.5383-.3589-.7434-.1538-.2051-.3475-.3646-.581-.4785-.2279-.114-.4985-.1709-.8118-.1709-.319 0-.5924.074-.8203.2221-.2279.1424-.413.339-.5554.5896-.1367.2507-.2393.5469-.3076.8887-.0627.3361-.094.7007-.094 1.0937zm10.382-4.5544v9.2456h-2.4694v-9.2456zm-2.6232-2.4097c0-.3588.1253-.6551.3759-.8886.2507-.2336.5868-.3504 1.0083-.3504.4159 0 .7491.1168.9998.3504.2563.2335.3845.5298.3845.8886 0 .3589-.1282.6552-.3845.8887-.2507.2336-.5839.3504-.9998.3504-.4215 0-.7576-.1168-1.0083-.3504-.2506-.2335-.3759-.5298-.3759-.8887zm4.2639 7.1265v-.1794c0-.6779.0968-1.3017.2905-1.8714.1937-.5753.4757-1.0738.8459-1.4953.3703-.4216.826-.7491 1.3672-.9827.5412-.2393 1.1621-.3589 1.8628-.3589s1.3245.1196 1.8713.3589c.5469.2336 1.0055.5611 1.3758.9827.376.4215.6608.92.8545 1.4953.1937.5697.2905 1.1935.2905 1.8714v.1794c0 .6722-.0968 1.296-.2905 1.8713-.1937.5697-.4785 1.0681-.8545 1.4954-.3703.4215-.826.7491-1.3672.9827-.5412.2335-1.1621.3503-1.8628.3503s-1.3245-.1168-1.8713-.3503c-.5412-.2336-.9998-.5612-1.3758-.9827-.3702-.4273-.6522-.9257-.8459-1.4954-.1937-.5753-.2905-1.1991-.2905-1.8713zm2.4609-.1794v.1794c0 .3874.0342.7491.1025 1.0852.0684.3361.1766.6323.3247.8887.1539.2506.3532.4472.5982.5896.2449.1424.544.2136.8972.2136.3418 0 .6352-.0712.8801-.2136.245-.1424.4415-.339.5896-.5896.1481-.2564.2564-.5526.3247-.8887.0741-.3361.1111-.6978.1111-1.0852v-.1794c0-.376-.037-.7292-.1111-1.0596-.0683-.3361-.1794-.6323-.3332-.8887-.1481-.262-.3447-.4671-.5896-.6152-.245-.1481-.5412-.2222-.8887-.2222s-.6437.0741-.8887.2222c-.2392.1481-.4357.3532-.5896.6152-.1481.2564-.2563.5526-.3247.8887-.0683.3304-.1025.6836-.1025 1.0596z" fill="#fff"/><circle cx="38.9619" cy="84.5315" fill="#5e5e5e" r="19.857"/><path d="m51.0889 84.1858-18.6227 10.6068v-21.2137z" fill="#fff"/></svg>