<svg fill="none" height="120" viewBox="0 0 80 120" width="80" xmlns="http://www.w3.org/2000/svg"><path d="m1 119v-118.000244h58.5858l19.4142 19.414244v98.586z" fill="#fff" stroke="#5e5e5e" stroke-width="2"/><g fill="#5e5e5e"><path d="m80 19.9998-20-20.00004414v20.00004414z"/><path d="m10 59.9998h59.9997v5h-59.9997z"/><path d="m10 69.9998h59.9997v5h-59.9997z"/><path d="m10 79.9998h30v5h-30z"/><path d="m10 27.9998h60v27h-60z"/></g><path d="m23.0896 37.686-3.3838 10.3138h-2.7258l4.6228-12.4415h1.7346zm2.8113 10.3138-3.3924-10.3138-.2734-2.1277h1.7517l4.6485 12.4415zm-.1538-4.6314v2.0081h-6.5711v-2.0081zm5.8703-4.6142 1.5296 2.8112 1.5722-2.8112h2.6233l-2.6147 4.5202 2.7344 4.7254h-2.6319l-1.6662-2.9737-1.6663 2.9737h-2.6318l2.7343-4.7254-2.6147-4.5202zm12.3902 7.0324v-7.0324h2.4609v9.2456h-2.3157zm.2734-1.897.7263-.017c0 .6152-.0712 1.1877-.2136 1.7175-.1424.5241-.356.9798-.6409 1.3672-.2848.3816-.6437.6807-1.0766.8972-.433.2108-.9428.3162-1.5296.3162-.45 0-.8659-.0627-1.2475-.188-.376-.1311-.7007-.3333-.9741-.6067-.2678-.2792-.4786-.6352-.6324-1.0681-.1481-.4387-.2221-.9656-.2221-1.5808v-5.9729h2.4609v5.9899c0 .2735.0313.5042.094.6922.0684.188.1623.3418.282.4614.1196.1196.2592.2051.4187.2564.1652.0512.3475.0769.5468.0769.507 0 .9058-.1026 1.1963-.3077.2963-.205.5042-.4842.6238-.8374.1253-.3588.188-.7576.188-1.1963zm6.5283-3.1188v7.229h-2.4609v-9.2456h2.3157zm2.7857-2.0765-.0428 2.2815c-.1196-.0171-.2648-.0313-.4357-.0427-.1652-.0171-.3162-.0256-.4529-.0256-.3475 0-.6494.0455-.9058.1367-.2506.0854-.4614.2136-.6323.3845-.1652.1709-.2905.3788-.376.6238-.0797.2449-.1253.5241-.1367.8374l-.4956-.1538c0-.5982.0598-1.1479.1794-1.6492.1197-.507.2934-.9485.5213-1.3244.2335-.376.5184-.6666.8545-.8716.3361-.2051.7206-.3076 1.1535-.3076.1367 0 .2763.0113.4187.0341.1424.0171.2592.0428.3504.0769zm5.2466 9.4764c-.7178 0-1.3615-.114-1.9312-.3418-.5697-.2336-1.0539-.5555-1.4526-.9656-.3931-.4102-.695-.8858-.9058-1.427-.2108-.5469-.3162-1.128-.3162-1.7432v-.3418c0-.7007.0997-1.3415.2991-1.9226.1994-.581.4842-1.0852.8545-1.5124.376-.4273.8317-.7548 1.3672-.9827.5355-.2336 1.1393-.3503 1.8115-.3503.6551 0 1.2362.1082 1.7432.3247.507.2164.9314.524 1.2732.9228.3475.3988.6095.8773.7861 1.4356.1766.5525.2649 1.1678.2649 1.8457v1.0254h-7.3486v-1.6407h4.9304v-.188c0-.3418-.0627-.6465-.188-.9143-.1196-.2734-.3019-.4899-.5469-.6494-.2449-.1595-.5582-.2392-.9399-.2392-.3247 0-.6039.0712-.8374.2136-.2336.1424-.4244.3418-.5725.5981-.1424.2564-.2507.5583-.3247.9058-.0684.3418-.1026.7178-.1026 1.1279v.3418c0 .3703.0513.7121.1538 1.0254.1083.3133.2592.5839.4529.8118.1994.2278.4387.4044.7178.5298.2848.1253.6067.1879.9656.1879.4443 0 .8573-.0854 1.239-.2563.3873-.1766.7206-.4415.9997-.7947l1.1963 1.2988c-.1937.2792-.4586.5469-.7947.8033-.3304.2563-.7291.4671-1.1962.6323-.4672.1595-.9998.2393-1.5979.2393z" fill="#fff"/></svg>