<svg xmlns="http://www.w3.org/2000/svg" width="104" height="152" fill="none">
  <path fill="#fff" fill-rule="evenodd" d="M4 4h76l20 20v124H4V4Z" clip-rule="evenodd"/>
  <path fill="#000000" fill-opacity=".08" fill-rule="evenodd" d="M81.7 0 104 22.3V152H0V0h81.7ZM4 4h76l20 20v124H4V4Z" clip-rule="evenodd"/>
  <path fill="#0065BD" fill-rule="evenodd" d="M4 4h76l20 20v124H4V4Zm2 142h92V24.8L79.2 6H6v140Z" clip-rule="evenodd"/>
  <path fill="#0065BD" d="M100 24 80 4v20h20ZM16 63h15v6H16zm19 0h15v6H35zm19 0h15v6H54zm19 0h15v6H73zM16 75h15v6H16zm19 0h15v6H35zm19 0h15v6H54zm19 0h15v6H73zM16 87h15v6H16zm19 0h15v6H35zm19 0h15v6H54zm19 0h15v6H73zM16 30h72v27H16z"/>
  <path fill="#fff" d="M43.4 45.9h1.9a6 6 0 0 1-.8 2.4c-.4.7-1 1.3-1.7 1.7a6 6 0 0 1-2.9.6c-.8 0-1.6-.1-2.3-.5a5 5 0 0 1-1.7-1.3c-.5-.6-.9-1.3-1.2-2-.2-.9-.3-1.8-.3-2.8v-1.4c0-1 0-1.9.3-2.7.3-.8.7-1.5 1.2-2 .5-.7 1-1.1 1.8-1.4a6 6 0 0 1 2.4-.5c1 0 2 .2 2.7.6.7.4 1.3 1 1.7 1.7.4.7.7 1.5.8 2.5h-1.9c0-.7-.2-1.3-.5-1.8-.2-.4-.6-.8-1-1a3.7 3.7 0 0 0-3.5 0c-.5.1-.9.5-1.2 1-.3.4-.6.9-.7 1.5a8 8 0 0 0-.3 2V44l.2 2 .7 1.6c.3.5.7.8 1.2 1 .4.3 1 .5 1.6.5a4 4 0 0 0 2-.4c.4-.3.7-.6 1-1.1.2-.5.4-1 .5-1.7Zm12 .9-.1-.9-.5-.7-1-.6-1.7-.5-2-.7-1.4-1c-.4-.2-.7-.6-1-1l-.3-1.5a3.5 3.5 0 0 1 1.4-2.8l1.5-.8c.6-.2 1.3-.3 2-.3 1 0 2 .2 2.7.6.7.4 1.3 1 1.7 1.6.4.7.6 1.4.6 2.1h-1.9c0-.5-.1-1-.3-1.4-.3-.4-.6-.8-1-1-.5-.2-1.1-.4-1.8-.4a4 4 0 0 0-1.7.3c-.4.2-.7.5-1 .9a2 2 0 0 0-.3 1.1l.2.9.6.6c.3.3.6.4 1 .6l1.6.5 2 .8c.6.3 1.1.6 1.5 1 .4.3.7.7.8 1.1l.3 1.5c0 .6 0 1.1-.3 1.6l-1 1.2c-.5.3-1 .6-1.6.7a7.3 7.3 0 0 1-4 0c-.6-.1-1.2-.4-1.7-.8a3 3 0 0 1-1.2-1.3c-.3-.6-.5-1.2-.5-2h1.9c0 .6 0 1 .3 1.4.1.3.4.6.7.8l1.2.5a5.5 5.5 0 0 0 3-.1c.4-.2.7-.4 1-.8.2-.3.3-.7.3-1.2Zm8.9 1.5 4.2-12.1h2l-5.2 14.2h-1.5l.5-2.1Zm-3.9-12.1 4.2 12 .5 2.2h-1.5l-5.2-14.2h2Z"/>
</svg>
