<svg fill="none" height="120" viewBox="0 0 80 120" width="80" xmlns="http://www.w3.org/2000/svg"><path d="m1 119v-118h58.5858l19.4142 19.4142v98.5858z" fill="#fff" stroke="#428542" stroke-width="2"/><g fill="#428542"><path d="m80 20-20-20v20z"/><path d="m10 65h12.5v5h-12.5z"/><path d="m25.833 64.9999h12.5v5h-12.5z"/><path d="m41.667 64.9999h12.5v5h-12.5z"/><path d="m57.5 64.9999h12.5v5h-12.5z"/><path d="m10 74.9999h12.5v5h-12.5z"/><path d="m25.833 74.9999h12.5v5h-12.5z"/><path d="m41.667 74.9999h12.5v5h-12.5z"/><path d="m57.5 74.9999h12.5v5h-12.5z"/><path d="m10 84.9999h12.5v5h-12.5z"/><path d="m25.833 84.9999h12.5v5h-12.5z"/><path d="m41.667 84.9999h12.5v5h-12.5z"/><path d="m57.5 84.9999h12.5v5h-12.5z"/><path d="m10 28h60v27h-60z"/></g><path d="m31.4893 43.8728h2.5549c-.0513.8374-.282 1.5808-.6921 2.2302-.4045.6494-.9713 1.1564-1.7005 1.521-.7235.3646-1.595.5469-2.6147.5469-.7976 0-1.5125-.1367-2.1448-.4102-.6323-.2791-1.1735-.6779-1.6235-1.1962-.4444-.5184-.7833-1.1451-1.0169-1.8799-.2336-.7349-.3503-1.5581-.3503-2.4695v-.863c0-.9115.1196-1.7347.3589-2.4695.2449-.7406.5924-1.3701 1.0424-1.8885.4558-.5184.9998-.9171 1.6321-1.1962.6323-.2792 1.3387-.4187 2.1192-.4187 1.0367 0 1.9112.1879 2.6232.5639.7178.376 1.2732.8944 1.6663 1.5552.3988.6608.638 1.4128.7178 2.2559h-2.5635c-.0285-.5014-.1282-.9257-.2991-1.2732-.1709-.3532-.4301-.6181-.7776-.7947-.3418-.1823-.7975-.2735-1.3671-.2735-.4273 0-.8004.0798-1.1194.2393s-.5868.4016-.8033.7263c-.2164.3247-.3788.7349-.487 1.2305-.1026.4899-.1538 1.0653-.1538 1.7261v.8801c0 .6437.0484 1.2105.1452 1.7004.0969.4842.245.8944.4444 1.2305.2051.3304.4671.5811.7861.7519.3247.1653.7149.2479 1.1707.2479.5354 0 .9769-.0855 1.3244-.2564s.6124-.4244.7947-.7605c.188-.3361.2991-.7548.3333-1.2561zm10.7153.8716c0-.2222-.0342-.4216-.1025-.5982-.0627-.1823-.1823-.3475-.3589-.4956-.1766-.1538-.4244-.3047-.7434-.4528-.3191-.1482-.7321-.302-1.2391-.4615-.5639-.1823-1.0994-.3873-1.6064-.6152-.5013-.2279-.9456-.4928-1.333-.7947-.3817-.3076-.6836-.6636-.9058-1.0681-.2164-.4045-.3247-.8744-.3247-1.4099 0-.5184.114-.9884.3418-1.4099.2279-.4273.5469-.7919.957-1.0938.4102-.3076.8944-.544 1.4527-.7092.5639-.1652 1.182-.2478 1.8542-.2478.9172 0 1.7176.1652 2.4012.4956.6835.3304 1.2133.7833 1.5893 1.3586.3817.5754.5725 1.2334.5725 1.9739h-2.5464c0-.3646-.0769-.6836-.2307-.957-.1481-.2791-.376-.4985-.6836-.658-.3019-.1595-.6836-.2392-1.145-.2392-.4443 0-.8146.0683-1.1108.2051-.2963.131-.5184.3104-.6665.5383-.1481.2221-.2222.4728-.2222.7519 0 .2108.0513.4016.1538.5725.1082.1709.2677.3304.4785.4786.2108.1481.47.2876.7776.4187.3076.131.6637.2592 1.0681.3845.6779.2051 1.2732.4358 1.7859.6921.5184.2564.9513.544 1.2988.8631.3475.319.6096.6807.7862 1.0852.1766.4044.2649.863.2649 1.3757 0 .5412-.1054 1.0254-.3162 1.4526-.2108.4273-.5155.789-.9143 1.0852-.3988.2963-.8744.5213-1.427.6751s-1.1707.2307-1.8543.2307c-.6152 0-1.2219-.0798-1.82-.2393-.5982-.1652-1.1422-.413-1.6321-.7434-.4842-.3304-.8716-.7519-1.1621-1.2646s-.4358-1.1194-.4358-1.8201h2.572c0 .3874.0598.7149.1795.9827.1196.2677.2876.4842.5041.6494.2222.1652.4842.2848.7861.3589.3077.074.6438.1111 1.0083.1111.4444 0 .809-.0627 1.0938-.188.2905-.1253.5041-.2991.6409-.5213.1424-.2221.2136-.4728.2136-.7519zm8.7927.6579 2.9309-9.8437h2.854l-4.3322 12.4414h-1.8799zm-2.7002-9.8437 2.9224 9.8437.4443 2.5977h-1.897l-4.3066-12.4414z" fill="#fff"/></svg>