<svg fill="none" height="120" viewBox="0 0 80 120" width="80" xmlns="http://www.w3.org/2000/svg"><path d="m1 119v-118h58.5858l19.4142 19.4142v98.5858z" fill="#fff" stroke="#428542" stroke-width="2"/><g fill="#428542"><path d="m80 20-20-20v20z"/><path d="m10 65h12.5v5h-12.5z"/><path d="m25.833 64.9999h12.5v5h-12.5z"/><path d="m41.667 64.9999h12.5v5h-12.5z"/><path d="m57.5 64.9999h12.5v5h-12.5z"/><path d="m10 74.9999h12.5v5h-12.5z"/><path d="m25.833 74.9999h12.5v5h-12.5z"/><path d="m41.667 74.9999h12.5v5h-12.5z"/><path d="m57.5 74.9999h12.5v5h-12.5z"/><path d="m10 84.9999h12.5v5h-12.5z"/><path d="m25.833 84.9999h12.5v5h-12.5z"/><path d="m41.667 84.9999h12.5v5h-12.5z"/><path d="m57.5 84.9999h12.5v5h-12.5z"/><path d="m10 28h60v27h-60z"/></g><path d="m28.5669 46.0005v1.9995h-6.6223v-1.9995zm-5.7849-10.4419v12.4414h-2.5635v-12.4414zm4.9219 5.0671v1.9483h-5.7593v-1.9483zm.8544-5.0671v2.0081h-6.6137v-2.0081zm3.3326 3.1958 1.5295 2.8113 1.5723-2.8113h2.6233l-2.6148 4.5203 2.7344 4.7253h-2.6318l-1.6663-2.9736-1.6663 2.9736h-2.6318l2.7344-4.7253-2.6148-4.5203zm10.57 7.4939c.302 0 .5697-.057.8033-.1709.2335-.1196.4158-.2848.5468-.4956.1368-.2165.208-.47.2137-.7605h2.3156c-.0057.6494-.1794 1.2276-.5212 1.7346-.3418.5013-.8004.8972-1.3757 1.1878-.5754.2848-1.2191.4272-1.9312.4272-.7178 0-1.3444-.1196-1.8799-.3589-.5298-.2392-.9712-.5696-1.3244-.9912-.3532-.4272-.6181-.9229-.7947-1.4868-.1766-.5697-.2649-1.1792-.2649-1.8286v-.2478c0-.6551.0883-1.2647.2649-1.8286.1766-.5697.4415-1.0653.7947-1.4869.3532-.4272.7946-.7605 1.3244-.9997.5298-.2393 1.1507-.3589 1.8628-.3589.7577 0 1.4213.1453 1.991.4358.5753.2905 1.0254.7064 1.3501 1.2475.3304.5355.4984 1.1707.5041 1.9056h-2.3156c-.0057-.3077-.0712-.5868-.1966-.8374-.1196-.2507-.2962-.4501-.5298-.5982-.2278-.1538-.5098-.2307-.8459-.2307-.3589 0-.6523.0769-.8801.2307-.2279.1481-.4045.3532-.5298.6153-.1253.2563-.2136.5497-.2649.8801-.0456.3247-.0684.6665-.0684 1.0254v.2478c0 .3589.0228.7035.0684 1.0339s.131.6238.2563.8801c.1311.2564.3105.4586.5384.6067.2278.1481.5241.2222.8886.2222zm9.5618 1.9226c-.7178 0-1.3615-.1139-1.9311-.3418-.5697-.2336-1.0539-.5554-1.4527-.9656-.3931-.4101-.695-.8858-.9057-1.427-.2108-.5469-.3162-1.1279-.3162-1.7431v-.3418c0-.7007.0997-1.3416.2991-1.9226.1993-.5811.4842-1.0852.8545-1.5125.3759-.4272.8317-.7548 1.3671-.9827.5355-.2335 1.1394-.3503 1.8116-.3503.6551 0 1.2361.1082 1.7431.3247s.9314.5241 1.2732.9229c.3475.3987.6096.8772.7862 1.4355.1766.5526.2649 1.1678.2649 1.8457v1.0254h-7.3487v-1.6406h4.9304v-.188c0-.3418-.0626-.6466-.188-.9143-.1196-.2735-.3019-.4899-.5468-.6494-.245-.1595-.5583-.2393-.94-.2393-.3247 0-.6038.0712-.8374.2136-.2335.1424-.4244.3418-.5725.5982-.1424.2563-.2506.5582-.3247.9057-.0683.3418-.1025.7178-.1025 1.128v.3418c0 .3702.0512.712.1538 1.0254.1082.3133.2592.5839.4529.8117.1993.2279.4386.4045.7177.5298.2849.1253.6067.188.9656.188.4443 0 .8574-.0855 1.239-.2564.3874-.1766.7206-.4414.9998-.7946l1.1963 1.2988c-.1937.2791-.4586.5469-.7947.8032-.3304.2564-.7292.4671-1.1963.6323-.4671.1595-.9998.2393-1.5979.2393zm7.793-13.2959v13.125h-2.4695v-13.125z" fill="#fff"/></svg>