<svg xmlns="http://www.w3.org/2000/svg" width="104" height="152" fill="none">
  <path fill="#fff" fill-rule="evenodd" d="M4 4h76l20 20v124H4V4Z" clip-rule="evenodd"/>
  <path fill="#000" fill-opacity=".08" fill-rule="evenodd" d="M81.7 0 104 22.3V152H0V0h81.7ZM4 4h76l20 20v124H4V4Z" clip-rule="evenodd"/>
  <path fill="#0065BD" fill-rule="evenodd" d="M4 4h76l20 20v124H4V4Zm2 142h92V24.8L79.2 6H6v140Z" clip-rule="evenodd"/>
  <path fill="#0065BD" d="M100 24 80 4v20h20ZM16 63h15v6H16zm19 0h15v6H35zm19 0h15v6H54zm19 0h15v6H73zM16 75h15v6H16zm19 0h15v6H35zm19 0h15v6H54zm19 0h15v6H73zM16 87h15v6H16zm19 0h15v6H35zm19 0h15v6H54zm19 0h15v6H73zM16 30h72v27H16z"/>
  <path fill="#fff" d="M39.2 48.5V50h-7.6v-1.5h7.6ZM32 35.8V50h-1.9V35.8h2Zm6.2 6v1.6h-6.6V42h6.6Zm.9-6v1.5h-7.5v-1.5h7.5Zm3.3 3.6 2.4 3.9 2.3-3.9h2.1l-3.4 5.2 3.5 5.4h-2l-2.5-4-2.4 4h-2.1l3.5-5.4-3.4-5.2h2Zm12.8 9.3c.4 0 .8 0 1.2-.3.3-.1.6-.4.9-.7l.4-1h1.7c0 .6-.3 1.2-.6 1.7a4.3 4.3 0 0 1-3.6 1.8c-.8 0-1.5-.1-2.1-.4-.6-.3-1-.7-1.5-1.2-.3-.5-.6-1-.8-1.7a7 7 0 0 1-.3-2v-.4c0-.7 0-1.4.3-2l.8-1.7c.4-.5 1-.9 1.5-1.1.6-.3 1.3-.5 2-.5 1 0 1.6.2 2.3.5.6.4 1 .8 1.4 1.4.4.6.6 1.2.6 2h-1.7c0-.5-.2-.9-.4-1.2-.2-.4-.5-.6-.9-.9-.3-.2-.7-.3-1.2-.3-.6 0-1 .1-1.4.4-.4.2-.7.5-.9.8l-.5 1.3-.1 1.3v.4l.1 1.4.5 1.2c.2.4.5.7.9.9.4.2.8.3 1.4.3Zm10.6 1.5c-.7 0-1.4-.1-2-.4a4.5 4.5 0 0 1-2.5-2.7 6 6 0 0 1-.3-2v-.4c0-.9 0-1.6.3-2.3.3-.7.6-1.3 1-1.7a4.4 4.4 0 0 1 5.2-1c.6.2 1 .6 1.4 1 .3.5.6 1 .8 1.7l.2 2v.8H62v-1.5h6.1c0-.6-.1-1-.3-1.5-.1-.4-.4-.8-.8-1a2 2 0 0 0-1.4-.5 2.5 2.5 0 0 0-2 1c-.3.4-.5.8-.6 1.3-.2.5-.2 1-.2 1.7v.4c0 .5 0 1 .2 1.4l.6 1.2 1 .7c.4.2.8.3 1.3.3.6 0 1.2-.1 1.6-.4a4 4 0 0 0 1.2-1l1 .9a5 5 0 0 1-.8 1c-.3.3-.8.5-1.3.7a5 5 0 0 1-1.8.3ZM74 35v15h-1.8V35H74Z"/>
</svg>
