<svg fill="none" height="120" viewBox="0 0 80 120" width="80" xmlns="http://www.w3.org/2000/svg"><path d="m1 119v-118.000244h58.5858l19.4142 19.414244v98.586z" fill="#fff" stroke="#5e5e5e" stroke-width="2"/><g fill="#5e5e5e"><path d="m80 19.9998-20-20.00004414v20.00004414z"/><path d="m10 59.9998h59.9997v5h-59.9997z"/><path d="m10 69.9998h59.9997v5h-59.9997z"/><path d="m10 79.9998h30v5h-30z"/><path d="m10 27.9998h60v27h-60z"/></g><path d="m19.2957 35.5583v12.4415h-2.5635v-12.4415zm4.956 5.315v1.9995h-5.6567v-1.9995zm.5982-5.315v2.0081h-6.2549v-2.0081zm3.9306 3.1959v9.2456h-2.4695v-9.2456zm-2.6233-2.4097c0-.3589.1254-.6551.376-.8887.2507-.2336.5868-.3503 1.0083-.3503.4159 0 .7491.1167.9998.3503.2563.2336.3845.5298.3845.8887s-.1282.6551-.3845.8887c-.2507.2335-.5839.3503-.9998.3503-.4215 0-.7576-.1168-1.0083-.3503-.2506-.2336-.376-.5298-.376-.8887zm10.5103 2.4097h2.2302v8.9379c0 .8431-.188 1.5581-.564 2.1448-.3702.5925-.8886 1.0396-1.5551 1.3416-.6665.3076-1.4413.4614-2.3243.4614-.3873 0-.7975-.0513-1.2304-.1538-.4273-.1026-.8374-.2621-1.2305-.4785-.3874-.2165-.7121-.4899-.9741-.8203l1.0852-1.4527c.2848.3304.6152.5868.9912.7691.376.188.7918.2819 1.2476.2819.4443 0 .8203-.0826 1.1279-.2478.3076-.1595.544-.3959.7092-.7092.1652-.3076.2478-.6807.2478-1.1194v-6.8188zm-6.2207 4.7338v-.1794c0-.7064.0854-1.3473.2563-1.9226.1766-.5811.4244-1.0795.7434-1.4954.3247-.4158.7178-.7377 1.1792-.9656.4615-.2278.9827-.3417 1.5638-.3417.6152 0 1.1307.1139 1.5466.3417.4158.2279.7576.5526 1.0254.9742.2677.4158.4756.9086.6238 1.4782.1538.564.2734 1.1821.3588 1.8543v.3931c-.0854.6437-.2136 1.2418-.3845 1.7944s-.3959 1.0368-.675 1.4526c-.2792.4102-.6267.7292-1.0425.9571-.4102.2278-.9001.3418-1.4697.3418-.5697 0-1.0852-.1168-1.5467-.3504-.4557-.2335-.8459-.5611-1.1706-.9827-.3247-.4215-.5754-.9171-.752-1.4868-.1709-.5696-.2563-1.1906-.2563-1.8628zm2.4609-.1794v.1794c0 .3817.037.7377.1111 1.0682.0741.3304.188.6237.3418.8801.1595.2506.356.4472.5896.5896.2393.1367.5212.2051.8459.2051.4501 0 .8175-.094 1.1023-.282.2849-.1937.4985-.4586.6409-.7947s.225-.7235.2478-1.1621v-1.1194c-.0114-.3589-.0598-.6807-.1453-.9656-.0854-.2905-.205-.5383-.3588-.7434s-.3532-.3646-.5982-.4785c-.2449-.1139-.5355-.1709-.8716-.1709-.3247 0-.6067.0741-.8459.2222-.2336.1424-.4301.3389-.5896.5896-.1538.2506-.2706.5468-.3504.8886-.0797.3361-.1196.7007-.1196 1.0938zm10.365-2.6404v7.3316h-2.4695v-9.2456h2.3157zm-.3418 2.384h-.6836c0-.6437.0769-1.2361.2307-1.7773.1595-.5469.3902-1.0197.6922-1.4185.3076-.4044.6864-.7177 1.1364-.9399.4501-.2222.9713-.3332 1.5638-.3332.4101 0 .7861.0626 1.1279.1879.3418.1197.6352.3105.8801.5726.2507.2563.4444.5924.5811 1.0083.1367.4101.2051.9029.2051 1.4782v6.1695h-2.461v-5.896c0-.4216-.057-.7463-.1709-.9742-.1139-.2278-.2763-.3873-.487-.4785-.2051-.0911-.4529-.1367-.7435-.1367-.319 0-.5981.0655-.8374.1965-.2335.1311-.4272.3134-.581.5469-.1538.2279-.2678.4956-.3418.8032-.0741.3077-.1111.6381-.1111.9912zm5.5029-.2819-.8801.111c0-.6038.0741-1.1649.2222-1.6833.1538-.5184.3788-.9741.675-1.3672.3019-.3931.6751-.6978 1.1194-.9143.4443-.2222.957-.3332 1.5381-.3332.4443 0 .8488.0655 1.2134.1965.3646.1253.675.3275.9314.6067.262.2734.4614.6323.5981 1.0766.1424.4444.2136.9884.2136 1.6321v5.9046h-2.4694v-5.9046c0-.4272-.057-.7519-.1709-.9741-.1083-.2279-.2678-.3845-.4786-.47-.205-.0911-.45-.1367-.7348-.1367-.2962 0-.5554.0598-.7776.1794-.2222.114-.4073.2735-.5554.4786-.1481.205-.2592.4443-.3333.7177-.074.2678-.1111.5612-.1111.8802zm12.5269 3.1445v-4.1187c0-.2962-.0484-.5497-.1453-.7605-.0968-.2164-.2478-.3845-.4529-.5041-.1993-.1196-.4585-.1794-.7775-.1794-.2735 0-.5099.0484-.7093.1452-.1993.0912-.3532.225-.4614.4016-.1082.1709-.1623.3732-.1623.6067h-2.461c0-.3931.0912-.7662.2735-1.1194.1822-.3532.4471-.6636.7946-.9314.3475-.2734.7605-.487 1.239-.6408.4843-.1538 1.0254-.2307 1.6236-.2307.7178 0 1.3558.1196 1.914.3588.5583.2393.9969.5982 1.316 1.0767.3247.4785.487 1.0767.487 1.7944v3.9563c0 .507.0314.9229.094 1.2476.0627.319.1538.5981.2735.8374v.1453h-2.4866c-.1196-.2507-.2108-.564-.2735-.94-.0569-.3817-.0854-.7633-.0854-1.145zm.3247-3.5461.0171 1.3928h-1.3757c-.3247 0-.6067.037-.846.1111-.2392.074-.4358.1794-.5896.3161-.1538.131-.2677.2849-.3418.4614-.0683.1766-.1025.3703-.1025.5811s.0484.4016.1452.5725c.0969.1652.2364.2962.4187.3931.1823.0911.396.1367.6409.1367.3703 0 .6921-.0741.9656-.2222.2734-.1481.4842-.3304.6323-.5468.1538-.2165.2336-.4216.2393-.6153l.6494 1.0425c-.0912.2336-.2165.4757-.376.7263-.1538.2507-.3503.4871-.5896.7092-.2393.2165-.5269.396-.863.5384-.3361.1367-.7349.2051-1.1963.2051-.5868 0-1.1194-.1168-1.5979-.3504-.4728-.2392-.8488-.5668-1.128-.9827-.2734-.4215-.4101-.9-.4101-1.4355 0-.4842.0911-.9143.2734-1.2903s.4501-.6921.8033-.9485c.3588-.262.806-.4585 1.3415-.5896.5355-.1367 1.1564-.205 1.8628-.205z" fill="#fff"/></svg>