<svg xmlns="http://www.w3.org/2000/svg" width="104" height="152" fill="none">
  <path fill="#fff" fill-rule="evenodd" d="M4 4h76l20 20v124H4V4Z" clip-rule="evenodd"/>
  <path fill="#000" fill-opacity=".08" fill-rule="evenodd" d="M81.7 0 104 22.3V152H0V0h81.7ZM4 4h76l20 20v124H4V4Z" clip-rule="evenodd"/>
  <path fill="#0065BD" fill-rule="evenodd" d="M4 4h76l20 20v124H4V4Zm2 142h92V24.8L79.2 6H6v140Z" clip-rule="evenodd"/>
  <path fill="#0065BD" d="M100 24 80 4v20h20Zm-48 8a20 20 0 0 0-20 19.9c0 14.9 20 36.8 20 36.8s20-22 20-36.8c0-11-9-19.9-20-19.9Zm0 27a7 7 0 0 1-7.1-7.1 7.1 7.1 0 0 1 14.3 0c0 3.9-3.3 7-7.2 7ZM12 98h80v28H12z"/>
  <path fill="#fff" d="M29 111.6v4.7a4.1 4.1 0 0 1-2 1.7 7.2 7.2 0 0 1-4.5-.1c-.6-.3-1.2-.7-1.7-1.2-.5-.6-.8-1.2-1.1-2a8 8 0 0 1-.4-2.5v-1c0-1 .1-1.8.4-2.6a4.8 4.8 0 0 1 2.6-3.1c.6-.2 1.3-.4 2.2-.4 1 0 1.8.2 2.4.5.7.4 1.2.8 1.6 1.4.3.6.6 1.3.7 2h-1.7a2 2 0 0 0-.5-1.2c-.2-.4-.5-.7-1-1-.3-.2-.9-.3-1.5-.3s-1.1.1-1.6.3c-.4.3-.8.6-1 1L21 109l-.2 2v1c0 .7.1 1.4.3 2l.7 1.5a3.2 3.2 0 0 0 2.7 1.2c.6 0 1 0 1.4-.2.4 0 .7-.2 1-.3l.4-.4V113h-3v-1.4H29Zm6.6 6.6c-.7 0-1.3-.1-1.8-.4a4 4 0 0 1-2.3-2.4c-.2-.5-.3-1.2-.3-1.8v-.4c0-.8.1-1.5.4-2a3 3 0 0 1 1-1.6 4 4 0 0 1 4.5-1c.5.3 1 .6 1.3 1l.7 1.5.2 1.9v.7h-7.1v-1.3h5.5v-.1a4 4 0 0 0-.3-1.3c-.1-.4-.4-.7-.7-1a2 2 0 0 0-1.3-.3 2.2 2.2 0 0 0-1.8.9c-.3.3-.4.7-.5 1-.2.5-.2 1-.2 1.6v.4c0 .4 0 .9.2 1.3 0 .3.3.7.5 1l.9.7c.3.2.7.2 1.2.2.6 0 1 0 1.4-.3.4-.2.8-.6 1-1l1 .8-.7 1-1.2.6c-.4.2-1 .3-1.6.3Zm5.2-4.8v-.3c0-.6 0-1.3.3-1.9.2-.6.5-1 .8-1.5a4.2 4.2 0 0 1 3.2-1.4c.7 0 1.3.1 1.8.4.5.2 1 .6 1.4 1l.8 1.5c.2.6.3 1.3.3 2v.2c0 .6 0 1.3-.3 1.9l-.8 1.5a4 4 0 0 1-3.2 1.4c-.7 0-1.3-.1-1.8-.4a4 4 0 0 1-2.2-2.5c-.2-.6-.3-1.3-.3-2Zm1.6-.3v.3c0 .4 0 .9.2 1.3 0 .4.2.8.5 1.1l.8.8 1.2.2c.4 0 .8 0 1.2-.2l.8-.8.5-1.1.2-1.3v-.3c0-.4 0-.9-.2-1.3l-.5-1c-.2-.4-.5-.7-.8-.9l-1.2-.3a2.4 2.4 0 0 0-2 1.1c-.3.3-.4.7-.5 1.1-.2.4-.2.9-.2 1.3Zm15.1 3.1v-11.7H59V118h-1.5l-.1-1.8Zm-6.4-2.8v-.2c0-.8 0-1.4.2-2 .2-.6.5-1.1.8-1.5.3-.5.7-.8 1.2-1 .4-.3 1-.4 1.5-.4.6 0 1.1.1 1.6.3.4.2.8.5 1.1 1 .3.3.6.8.8 1.4l.4 1.8v.9l-.4 1.8c-.2.6-.5 1-.8 1.5-.3.4-.7.7-1.1.9a3.8 3.8 0 0 1-3.1 0l-1.2-1a5 5 0 0 1-.8-1.6c-.2-.6-.2-1.3-.2-2Zm1.6-.2v.2l.1 1.3.5 1c.2.4.5.7.8.8.3.2.7.3 1.1.3.5 0 1-.1 1.3-.3.4-.3.7-.6.9-1l.5-1.2v-2l-.3-1-.5-.8c-.3-.3-.5-.5-.8-.6l-1-.2c-.5 0-.9 0-1.2.3-.3.1-.6.4-.8.7l-.5 1.1-.1 1.4Zm14.5 3.2v-5c0-.3 0-.6-.2-.9-.1-.3-.4-.5-.7-.6-.3-.2-.6-.3-1-.3-.5 0-.8 0-1.2.2l-.7.6-.2.7h-1.7l.3-1 .8-.9c.3-.3.7-.5 1.2-.6a4.5 4.5 0 0 1 3.4.1c.5.2.9.6 1.2 1 .3.5.5 1 .5 1.8v5.4l.3 1v.1h-1.7a6 6 0 0 1-.3-1.6Zm.3-4.2v1.2H66a6 6 0 0 0-1.3 0l-.9.4c-.2.2-.4.3-.5.6-.2.2-.2.4-.2.7 0 .3 0 .6.2.9.1.2.3.4.6.5.3.2.6.3 1 .3a2.7 2.7 0 0 0 2.2-1.1c.2-.3.4-.6.4-1l.7.9-.3.8a3.9 3.9 0 0 1-1.9 1.5c-.4.2-.8.3-1.3.3-.7 0-1.3-.2-1.7-.4a4 4 0 0 1-1.2-1c-.2-.4-.4-1-.4-1.4 0-.6.1-1 .3-1.4.2-.4.5-.7.9-1a4 4 0 0 1 1.4-.6l1.7-.2h2Zm7.9-3.7v1.2h-5.1v-1.2h5.1Zm-3.4-2.3h1.6v9.4c0 .4 0 .6.2.8l.4.3h.5a2.6 2.6 0 0 0 .7 0v1.3l-.5.1h-.7c-.4 0-.8 0-1.1-.2-.3-.1-.6-.4-.8-.8-.2-.3-.3-.8-.3-1.5v-9.4Zm11 10.2v-5l-.3-.9c-.2-.3-.4-.5-.7-.6a2 2 0 0 0-1-.3c-.5 0-.9 0-1.2.2l-.7.6c-.2.2-.2.5-.2.7h-1.7l.3-1 .7-.9 1.2-.6c.5-.2 1-.3 1.6-.3.7 0 1.3.1 1.8.4.6.2 1 .6 1.3 1 .3.5.4 1 .4 1.8v4.4l.1 1c0 .4.2.7.3 1v.1h-1.7a6 6 0 0 1-.3-1.6Zm.2-4.2v1.2h-1.6a6 6 0 0 0-1.3 0l-.9.4c-.2.2-.4.3-.5.6-.2.2-.2.4-.2.7 0 .3 0 .6.2.9 0 .2.3.4.6.5.2.2.6.3 1 .3a2.7 2.7 0 0 0 2.2-1.1c.2-.3.4-.6.4-1l.7.9-.4.8a3.9 3.9 0 0 1-1.8 1.5c-.4.2-.8.3-1.4.3-.6 0-1.2-.2-1.7-.4-.4-.3-.8-.6-1-1a2.7 2.7 0 0 1-.2-2.8c.2-.4.5-.7.9-1a4 4 0 0 1 1.3-.6l1.8-.2h1.9Z"/>
</svg>
