<svg fill="none" height="120" viewBox="0 0 80 120" width="80" xmlns="http://www.w3.org/2000/svg"><path d="m1 119v-118.000244h58.5858l19.4142 19.414244v98.586z" fill="#fff" stroke="#5e5e5e" stroke-width="2"/><g fill="#5e5e5e"><path d="m80 19.9998-20-20.00004414v20.00004414z"/><path d="m10 59.9998h59.9997v5h-59.9997z"/><path d="m10 69.9998h59.9997v5h-59.9997z"/><path d="m10 79.9998h30v5h-30z"/><path d="m10 27.9998h60v27h-60z"/></g><path d="m28.5156 38.7542v9.2456h-2.4695v-9.2456zm-2.6233-2.4097c0-.3589.1254-.6551.376-.8887.2507-.2336.5868-.3503 1.0083-.3503.4159 0 .7491.1167.9998.3503.2563.2336.3845.5298.3845.8887s-.1282.6551-.3845.8887c-.2507.2335-.5839.3503-.9998.3503-.4215 0-.7576-.1168-1.0083-.3503-.2506-.2336-.376-.5298-.376-.8887zm12.0227 7.5281h2.555c-.0513.8374-.282 1.5808-.6922 2.2302-.4044.6494-.9712 1.1564-1.7004 1.521-.7235.3646-1.5951.5469-2.6148.5469-.7975 0-1.5124-.1368-2.1447-.4102-.6324-.2791-1.1735-.6779-1.6236-1.1963-.4443-.5184-.7832-1.145-1.0168-1.8799-.2336-.7348-.3504-1.558-.3504-2.4695v-.863c0-.9115.1197-1.7346.3589-2.4695.245-.7405.5925-1.37 1.0425-1.8884.4557-.5184.9998-.9172 1.6321-1.1963s1.3387-.4187 2.1191-.4187c1.0368 0 1.9113.188 2.6233.564.7178.3759 1.2732.8943 1.6663 1.5551.3988.6609.638 1.4128.7178 2.2559h-2.5635c-.0285-.5013-.1282-.9257-.2991-1.2732-.1709-.3532-.4301-.6181-.7776-.7947-.3418-.1823-.7975-.2734-1.3672-.2734-.4272 0-.8003.0798-1.1193.2393-.3191.1595-.5868.4016-.8033.7263-.2164.3247-.3788.7348-.487 1.2304-.1026.49-.1538 1.0653-.1538 1.7261v.8801c0 .6438.0484 1.2106.1452 1.7005.0969.4842.245.8944.4444 1.2305.205.3304.4671.581.7861.7519.3247.1652.7149.2478 1.1706.2478.5355 0 .977-.0854 1.3245-.2563s.6124-.4244.7947-.7605c.188-.3361.2991-.7548.3332-1.2561zm9.0747 2.0422v-4.1187c0-.2962-.0484-.5497-.1452-.7605-.0969-.2164-.2478-.3845-.4529-.5041-.1994-.1196-.4586-.1794-.7776-.1794-.2734 0-.5098.0484-.7092.1452-.1994.0912-.3532.225-.4614.4016-.1083.1709-.1624.3732-.1624.6067h-2.4609c0-.3931.0911-.7662.2734-1.1194s.4472-.6636.7947-.9314c.3475-.2734.7605-.487 1.239-.6408.4842-.1538 1.0254-.2307 1.6235-.2307.7178 0 1.3558.1196 1.9141.3588.5583.2393.9969.5982 1.3159 1.0767.3247.4785.4871 1.0767.4871 1.7944v3.9563c0 .507.0313.9229.094 1.2476.0626.319.1538.5981.2734.8374v.1453h-2.4866c-.1196-.2507-.2107-.564-.2734-.94-.057-.3817-.0855-.7633-.0855-1.145zm.3248-3.5461.017 1.3928h-1.3757c-.3247 0-.6067.037-.8459.1111-.2393.074-.4358.1794-.5896.3161-.1538.131-.2678.2849-.3418.4614-.0684.1766-.1026.3703-.1026.5811s.0484.4016.1453.5725c.0968.1652.2364.2962.4187.3931.1823.0911.3959.1367.6409.1367.3702 0 .6921-.0741.9655-.2222.2735-.1481.4843-.3304.6324-.5468.1538-.2165.2335-.4216.2392-.6153l.6494 1.0425c-.0911.2336-.2164.4757-.3759.7263-.1539.2507-.3504.4871-.5896.7092-.2393.2165-.527.396-.8631.5384-.3361.1367-.7348.2051-1.1963.2051-.5867 0-1.1194-.1168-1.5979-.3504-.4728-.2392-.8488-.5668-1.1279-.9827-.2734-.4215-.4102-.9-.4102-1.4355 0-.4842.0912-.9143.2735-1.2903s.45-.6921.8032-.9485c.3589-.262.8061-.4585 1.3416-.5896.5354-.1367 1.1564-.205 1.8628-.205zm6.6479-7.4939v13.125h-2.4695v-13.125z" fill="#fff"/></svg>