<svg fill="none" height="120" viewBox="0 0 80 120" width="80" xmlns="http://www.w3.org/2000/svg"><path d="m1 119v-118.000244h58.5858l19.4142 19.414244v98.586z" fill="#fff" stroke="#5e5e5e" stroke-width="2"/><g fill="#5e5e5e"><path d="m80 19.9998-20-20.00004414v20.00004414z"/><path d="m10 59.9998h59.9997v5h-59.9997z"/><path d="m10 69.9998h59.9997v5h-59.9997z"/><path d="m10 79.9998h30v5h-30z"/><path d="m10 27.9998h60v27h-60z"/></g><path d="m29.5154 35.5583v12.4415h-2.555v-12.4415zm9.613 8.3143h2.5549c-.0512.8374-.2819 1.5808-.6921 2.2302-.4044.6494-.9713 1.1564-1.7004 1.521-.7235.3646-1.5951.5469-2.6148.5469-.7975 0-1.5124-.1368-2.1448-.4102-.6323-.2791-1.1735-.6779-1.6235-1.1963-.4443-.5184-.7833-1.145-1.0168-1.8799-.2336-.7348-.3504-1.558-.3504-2.4695v-.863c0-.9115.1197-1.7346.3589-2.4695.245-.7405.5925-1.37 1.0425-1.8884.4557-.5184.9998-.9172 1.6321-1.1963s1.3387-.4187 2.1191-.4187c1.0368 0 1.9112.188 2.6233.564.7178.3759 1.2732.8943 1.6663 1.5551.3987.6609.638 1.4128.7177 2.2559h-2.5634c-.0285-.5013-.1282-.9257-.2991-1.2732-.1709-.3532-.4301-.6181-.7776-.7947-.3418-.1823-.7975-.2734-1.3672-.2734-.4272 0-.8004.0798-1.1194.2393s-.5867.4016-.8032.7263-.3788.7348-.4871 1.2304c-.1025.49-.1538 1.0653-.1538 1.7261v.8801c0 .6438.0485 1.2106.1453 1.7005.0968.4842.245.8944.4443 1.2305.2051.3304.4672.581.7862.7519.3247.1652.7149.2478 1.1706.2478.5355 0 .977-.0854 1.3245-.2563s.6124-.4244.7947-.7605c.188-.3361.299-.7548.3332-1.2561zm14.458-2.3841v.5896c0 .9457-.1281 1.7945-.3845 2.5464-.2563.752-.6181 1.3928-1.0852 1.9226-.4671.5241-1.0254.9257-1.6748 1.2049-.6437.2791-1.3586.4187-2.1448.4187-.7804 0-1.4953-.1396-2.1448-.4187-.6437-.2792-1.2019-.6808-1.6748-1.2049-.4728-.5298-.8402-1.1706-1.1023-1.9226-.2563-.7519-.3845-1.6007-.3845-2.5464v-.5896c0-.9513.1282-1.8001.3845-2.5464.2564-.7519.6181-1.3928 1.0852-1.9226.4729-.5298 1.0311-.9342 1.6749-1.2133.6494-.2792 1.3643-.4187 2.1447-.4187.7862 0 1.5011.1395 2.1448.4187.6494.2791 1.2077.6835 1.6748 1.2133.4728.5298.8374 1.1707 1.0938 1.9226.262.7463.393 1.5951.393 2.5464zm-2.5891.5896v-.6067c0-.6608-.0598-1.2418-.1794-1.7431-.1197-.5013-.2963-.9229-.5298-1.2647-.2336-.3418-.5184-.5981-.8545-.769-.3361-.1766-.7206-.2649-1.1536-.2649-.4329 0-.8174.0883-1.1535.2649-.3304.1709-.6124.4272-.846.769-.2278.3418-.4016.7634-.5212 1.2647-.1197.5013-.1795 1.0823-.1795 1.7431v.6067c0 .6551.0598 1.2362.1795 1.7432.1196.5013.2962.9257.5298 1.2732.2335.3418.5184.601.8545.7776s.7206.2649 1.1535.2649c.433 0 .8175-.0883 1.1536-.2649s.6181-.4358.8459-.7776c.2279-.3475.4016-.7719.5213-1.2732.1196-.507.1794-1.0881.1794-1.7432z" fill="#fff"/></svg>