<svg xmlns="http://www.w3.org/2000/svg" width="104" height="152" fill="none">
  <path fill="#fff" fill-rule="evenodd" d="M4 4h76l20 20v124H4V4Z" clip-rule="evenodd"/>
  <path fill="#000" fill-opacity=".08" fill-rule="evenodd" d="M81.7 0 104 22.3V152H0V0h81.7ZM4 4h76l20 20v124H4V4Z" clip-rule="evenodd"/>
  <path fill="#0065BD" fill-rule="evenodd" d="M4 4h76l20 20v124H4V4Zm2 142h92V24.8L79.2 6H6v140Z" clip-rule="evenodd"/>
  <path fill="#0065BD" d="M100 24 80 4v20h20ZM79.8 41.3H24.3c-3.1 0-6.2 3-6.2 6.1v43.2c0 3.4 2.8 6.2 6.2 6.2h55.5c3 0 6.1-3.1 6.1-6.2V47.4c0-3-3-6.1-6.1-6.1Zm-49.4 43 10.8-13.9 7.7 9.3L59.7 66l13.9 18.5H30.4Z"/>
  <circle cx="50" cy="60" r="4" fill="#fff"/>
</svg>
