<svg width="80" height="120" viewBox="0 0 80 120" fill="none" xmlns="http://www.w3.org/2000/svg">
<path d="M59.5859 0.999756L79 20.4138V119H1V0.999756H59.5859Z" fill="white" stroke="#5E5E5E" stroke-width="2"/>
<path d="M80 19.9998L60 -0.000244141V19.9998H80Z" fill="#5E5E5E"/>
<rect x="10" y="59.9998" width="59.9997" height="5" fill="#5E5E5E"/>
<rect x="10" y="69.9998" width="59.9997" height="5" fill="#5E5E5E"/>
<rect x="10" y="79.9998" width="30" height="5" fill="#5E5E5E"/>
<rect x="10" y="27.9998" width="60" height="27" fill="#5E5E5E"/>
<path d="M34.8047 41.4885V42.0781C34.8047 43.0238 34.6765 43.8726 34.4202 44.6245C34.1638 45.3765 33.8021 46.0173 33.335 46.5471C32.8678 47.0712 32.3096 47.4728 31.6602 47.752C31.0164 48.0311 30.3015 48.1707 29.5154 48.1707C28.7349 48.1707 28.02 48.0311 27.3706 47.752C26.7269 47.4728 26.1686 47.0712 25.6958 46.5471C25.223 46.0173 24.8556 45.3765 24.5935 44.6245C24.3372 43.8726 24.209 43.0238 24.209 42.0781V41.4885C24.209 40.5372 24.3372 39.6884 24.5935 38.9421C24.8499 38.1902 25.2116 37.5493 25.6787 37.0195C26.1515 36.4897 26.7098 36.0853 27.3535 35.8062C28.0029 35.527 28.7179 35.3875 29.4983 35.3875C30.2844 35.3875 30.9993 35.527 31.6431 35.8062C32.2925 36.0853 32.8507 36.4897 33.3179 37.0195C33.7907 37.5493 34.1553 38.1902 34.4116 38.9421C34.6737 39.6884 34.8047 40.5372 34.8047 41.4885ZM32.2156 42.0781V41.4714C32.2156 40.8106 32.1558 40.2296 32.0361 39.7283C31.9165 39.227 31.7399 38.8054 31.5063 38.4636C31.2728 38.1218 30.988 37.8655 30.6519 37.6946C30.3158 37.518 29.9312 37.4297 29.4983 37.4297C29.0653 37.4297 28.6808 37.518 28.3447 37.6946C28.0143 37.8655 27.7323 38.1218 27.4988 38.4636C27.2709 38.8054 27.0972 39.227 26.9775 39.7283C26.8579 40.2296 26.7981 40.8106 26.7981 41.4714V42.0781C26.7981 42.7332 26.8579 43.3143 26.9775 43.8213C27.0972 44.3226 27.2738 44.747 27.5073 45.0945C27.7409 45.4363 28.0257 45.6955 28.3618 45.8721C28.6979 46.0487 29.0824 46.137 29.5154 46.137C29.9483 46.137 30.3328 46.0487 30.6689 45.8721C31.005 45.6955 31.287 45.4363 31.5149 45.0945C31.7428 44.747 31.9165 44.3226 32.0361 43.8213C32.1558 43.3143 32.2156 42.7332 32.2156 42.0781ZM40.47 47.9998H37.7612L37.7783 46.0002H40.47C41.1422 46.0002 41.709 45.8493 42.1704 45.5474C42.6318 45.2397 42.9793 44.7926 43.2129 44.2058C43.4521 43.6191 43.5718 42.9098 43.5718 42.0781V41.4714C43.5718 40.8334 43.5034 40.2723 43.3667 39.7881C43.2357 39.3039 43.0391 38.8966 42.7771 38.5662C42.5151 38.2358 42.1932 37.988 41.8115 37.8228C41.4299 37.6519 40.9912 37.5664 40.4956 37.5664H37.71V35.5583H40.4956C41.3273 35.5583 42.0878 35.7008 42.7771 35.9856C43.4721 36.2647 44.0731 36.6663 44.5801 37.1904C45.0871 37.7145 45.4773 38.3411 45.7507 39.0703C46.0299 39.7938 46.1694 40.5999 46.1694 41.4885V42.0781C46.1694 42.9611 46.0299 43.7672 45.7507 44.4963C45.4773 45.2255 45.0871 45.8521 44.5801 46.3762C44.0788 46.8946 43.4778 47.2962 42.7771 47.5811C42.0821 47.8602 41.3131 47.9998 40.47 47.9998ZM39.2139 35.5583V47.9998H36.6504V35.5583H39.2139ZM50.5957 35.5583V47.9998H48.0322V35.5583H50.5957ZM55.5518 40.8733V42.8728H49.895V40.8733H55.5518ZM56.1499 35.5583V37.5664H49.895V35.5583H56.1499Z" fill="white"/>
</svg>
