<svg width="80" height="120" viewBox="0 0 80 120" fill="none" xmlns="http://www.w3.org/2000/svg">
<path d="M59.5859 0.999756L79 20.4138V119H1V0.999756H59.5859Z" fill="white" stroke="#5E5E5E" stroke-width="2"/>
<path d="M80 19.9998L60 -0.000244141V19.9998H80Z" fill="#5E5E5E"/>
<rect x="10" y="59.9998" width="59.9997" height="5" fill="#5E5E5E"/>
<rect x="10" y="69.9998" width="59.9997" height="5" fill="#5E5E5E"/>
<rect x="10" y="79.9998" width="30" height="5" fill="#5E5E5E"/>
<rect x="10" y="27.9998" width="60" height="27" fill="#5E5E5E"/>
<path d="M33.6426 41.4885V42.0781C33.6426 43.0238 33.5144 43.8726 33.2581 44.6245C33.0017 45.3765 32.64 46.0173 32.1729 46.5471C31.7057 47.0712 31.1475 47.4728 30.498 47.752C29.8543 48.0311 29.1394 48.1707 28.3533 48.1707C27.5728 48.1707 26.8579 48.0311 26.2085 47.752C25.5648 47.4728 25.0065 47.0712 24.5337 46.5471C24.0609 46.0173 23.6934 45.3765 23.4314 44.6245C23.175 43.8726 23.0469 43.0238 23.0469 42.0781V41.4885C23.0469 40.5372 23.175 39.6884 23.4314 38.9421C23.6877 38.1902 24.0495 37.5493 24.5166 37.0195C24.9894 36.4897 25.5477 36.0853 26.1914 35.8062C26.8408 35.527 27.5557 35.3875 28.3362 35.3875C29.1223 35.3875 29.8372 35.527 30.481 35.8062C31.1304 36.0853 31.6886 36.4897 32.1558 37.0195C32.6286 37.5493 32.9932 38.1902 33.2495 38.9421C33.5116 39.6884 33.6426 40.5372 33.6426 41.4885ZM31.0535 42.0781V41.4714C31.0535 40.8106 30.9937 40.2296 30.874 39.7283C30.7544 39.227 30.5778 38.8054 30.3442 38.4636C30.1107 38.1218 29.8258 37.8655 29.4897 37.6946C29.1536 37.518 28.7691 37.4297 28.3362 37.4297C27.9032 37.4297 27.5187 37.518 27.1826 37.6946C26.8522 37.8655 26.5702 38.1218 26.3367 38.4636C26.1088 38.8054 25.9351 39.227 25.8154 39.7283C25.6958 40.2296 25.636 40.8106 25.636 41.4714V42.0781C25.636 42.7332 25.6958 43.3143 25.8154 43.8213C25.9351 44.3226 26.1117 44.747 26.3452 45.0945C26.5788 45.4363 26.8636 45.6955 27.1997 45.8721C27.5358 46.0487 27.9203 46.137 28.3533 46.137C28.7862 46.137 29.1707 46.0487 29.5068 45.8721C29.8429 45.6955 30.1249 45.4363 30.3528 45.0945C30.5806 44.747 30.7544 44.3226 30.874 43.8213C30.9937 43.3143 31.0535 42.7332 31.0535 42.0781ZM39.3079 47.9998H36.5991L36.6162 46.0002H39.3079C39.9801 46.0002 40.5469 45.8493 41.0083 45.5474C41.4697 45.2397 41.8172 44.7926 42.0508 44.2058C42.29 43.6191 42.4097 42.9098 42.4097 42.0781V41.4714C42.4097 40.8334 42.3413 40.2723 42.2046 39.7881C42.0736 39.3039 41.877 38.8966 41.615 38.5662C41.3529 38.2358 41.0311 37.988 40.6494 37.8228C40.2677 37.6519 39.8291 37.5664 39.3335 37.5664H36.5479V35.5583H39.3335C40.1652 35.5583 40.9257 35.7008 41.615 35.9856C42.31 36.2647 42.911 36.6663 43.418 37.1904C43.925 37.7145 44.3152 38.3411 44.5886 39.0703C44.8678 39.7938 45.0073 40.5999 45.0073 41.4885V42.0781C45.0073 42.9611 44.8678 43.7672 44.5886 44.4963C44.3152 45.2255 43.925 45.8521 43.418 46.3762C42.9167 46.8946 42.3157 47.2962 41.615 47.5811C40.92 47.8602 40.151 47.9998 39.3079 47.9998ZM38.0518 35.5583V47.9998H35.4883V35.5583H38.0518ZM56.731 41.4971V46.4275C56.5373 46.6611 56.2382 46.9146 55.8337 47.188C55.4293 47.4557 54.908 47.6864 54.27 47.8801C53.632 48.0738 52.8601 48.1707 51.9543 48.1707C51.1511 48.1707 50.4191 48.0396 49.7583 47.7776C49.0975 47.5098 48.5278 47.1196 48.0493 46.6069C47.5765 46.0942 47.2119 45.4676 46.9556 44.7271C46.6992 43.9808 46.571 43.1292 46.571 42.1721V41.3945C46.571 40.4375 46.6935 39.5859 46.9385 38.8396C47.1891 38.0933 47.5452 37.4639 48.0066 36.9512C48.468 36.4385 49.0177 36.0483 49.6558 35.7805C50.2938 35.5128 51.003 35.3789 51.7834 35.3789C52.8658 35.3789 53.7545 35.5555 54.4495 35.9087C55.1444 36.2562 55.6742 36.7404 56.0388 37.3613C56.4091 37.9766 56.637 38.6829 56.7224 39.4805H54.2358C54.1732 39.0589 54.0535 38.6915 53.877 38.3782C53.7004 38.0649 53.4469 37.8199 53.1165 37.6433C52.7917 37.4667 52.3702 37.3784 51.8518 37.3784C51.4246 37.3784 51.0429 37.4667 50.7068 37.6433C50.3764 37.8142 50.0972 38.0677 49.8694 38.4038C49.6415 38.7399 49.4678 39.1558 49.3481 39.6514C49.2285 40.147 49.1687 40.7223 49.1687 41.3774V42.1721C49.1687 42.8215 49.2314 43.3969 49.3567 43.8982C49.482 44.3938 49.6672 44.8125 49.9121 45.1543C50.1628 45.4904 50.4704 45.7439 50.835 45.9148C51.1995 46.0857 51.6239 46.1711 52.1082 46.1711C52.5126 46.1711 52.8487 46.137 53.1165 46.0686C53.3899 46.0002 53.6092 45.9176 53.7744 45.8208C53.9453 45.7183 54.0763 45.6214 54.1675 45.5303V43.3257H51.8262V41.4971H56.731Z" fill="white"/>
</svg>
