<svg width="80" height="120" viewBox="0 0 80 120" fill="none" xmlns="http://www.w3.org/2000/svg">
<path d="M59.5859 1L79 20.4141V119H1V1H59.5859Z" fill="white" stroke="#CB4E0B" stroke-width="2"/>
<path d="M80 20L60 0V20H80Z" fill="#CB4E0B"/>
<rect x="9.99951" y="28" width="60" height="27" fill="#CB4E0B"/>
<path d="M33.9668 41.4888V42.0784C33.9668 43.024 33.8386 43.8728 33.5823 44.6248C33.3259 45.3767 32.9642 46.0176 32.4971 46.5474C32.0299 47.0715 31.4717 47.4731 30.8223 47.7522C30.1785 48.0313 29.4636 48.1709 28.6775 48.1709C27.8971 48.1709 27.1821 48.0313 26.5327 47.7522C25.889 47.4731 25.3307 47.0715 24.8579 46.5474C24.3851 46.0176 24.0177 45.3767 23.7556 44.6248C23.4993 43.8728 23.3711 43.024 23.3711 42.0784V41.4888C23.3711 40.5374 23.4993 39.6886 23.7556 38.9424C24.012 38.1904 24.3737 37.5496 24.8408 37.0198C25.3136 36.49 25.8719 36.0855 26.5156 35.8064C27.165 35.5273 27.88 35.3877 28.6604 35.3877C29.4465 35.3877 30.1615 35.5273 30.8052 35.8064C31.4546 36.0855 32.0129 36.49 32.48 37.0198C32.9528 37.5496 33.3174 38.1904 33.5737 38.9424C33.8358 39.6886 33.9668 40.5374 33.9668 41.4888ZM31.3777 42.0784V41.4717C31.3777 40.8109 31.3179 40.2298 31.1982 39.7285C31.0786 39.2272 30.902 38.8057 30.6685 38.4639C30.4349 38.1221 30.1501 37.8657 29.814 37.6948C29.4779 37.5182 29.0933 37.4299 28.6604 37.4299C28.2275 37.4299 27.8429 37.5182 27.5068 37.6948C27.1764 37.8657 26.8944 38.1221 26.6609 38.4639C26.433 38.8057 26.2593 39.2272 26.1396 39.7285C26.02 40.2298 25.9602 40.8109 25.9602 41.4717V42.0784C25.9602 42.7335 26.02 43.3145 26.1396 43.8215C26.2593 44.3228 26.4359 44.7472 26.6694 45.0947C26.903 45.4365 27.1878 45.6957 27.5239 45.8723C27.86 46.0489 28.2445 46.1372 28.6775 46.1372C29.1104 46.1372 29.495 46.0489 29.8311 45.8723C30.1672 45.6957 30.4491 45.4365 30.677 45.0947C30.9049 44.7472 31.0786 44.3228 31.1982 43.8215C31.3179 43.3145 31.3777 42.7335 31.3777 42.0784ZM39.6321 48H36.9233L36.9404 46.0005H39.6321C40.3043 46.0005 40.8711 45.8495 41.3325 45.5476C41.7939 45.24 42.1414 44.7928 42.375 44.2061C42.6143 43.6193 42.7339 42.9101 42.7339 42.0784V41.4717C42.7339 40.8337 42.6655 40.2725 42.5288 39.7883C42.3978 39.3041 42.2013 38.8968 41.9392 38.5664C41.6772 38.236 41.3553 37.9882 40.9736 37.823C40.592 37.6521 40.1533 37.5667 39.6577 37.5667H36.8721V35.5586H39.6577C40.4894 35.5586 41.2499 35.701 41.9392 35.9858C42.6342 36.265 43.2352 36.6666 43.7422 37.1907C44.2492 37.7148 44.6394 38.3414 44.9128 39.0706C45.192 39.794 45.3315 40.6001 45.3315 41.4888V42.0784C45.3315 42.9613 45.192 43.7674 44.9128 44.4966C44.6394 45.2257 44.2492 45.8524 43.7422 46.3765C43.2409 46.8949 42.6399 47.2965 41.9392 47.5813C41.2442 47.8604 40.4752 48 39.6321 48ZM38.376 35.5586V48H35.8125V35.5586H38.376ZM52.0393 43.5652H48.8691V41.5657H52.0393C52.5292 41.5657 52.928 41.4859 53.2356 41.3264C53.5432 41.1612 53.7682 40.9333 53.9106 40.6428C54.0531 40.3523 54.1243 40.0247 54.1243 39.6602C54.1243 39.2899 54.0531 38.9452 53.9106 38.6262C53.7682 38.3072 53.5432 38.0509 53.2356 37.8572C52.928 37.6635 52.5292 37.5667 52.0393 37.5667H49.7578V48H47.1943V35.5586H52.0393C53.0134 35.5586 53.848 35.7352 54.543 36.0884C55.2437 36.4359 55.7791 36.9172 56.1494 37.5325C56.5197 38.1477 56.7048 38.8512 56.7048 39.6431C56.7048 40.4463 56.5197 41.1413 56.1494 41.728C55.7791 42.3148 55.2437 42.7677 54.543 43.0867C53.848 43.4057 53.0134 43.5652 52.0393 43.5652Z" fill="white"/>
<path d="M58.0328 83.4837C58.0328 87.2448 56.9175 90.9214 54.828 94.0486C52.7384 97.1759 49.7685 99.6132 46.2937 101.053C42.8189 102.492 38.9953 102.868 35.3065 102.135C31.6177 101.401 28.2293 99.5898 25.5698 96.9303C22.9103 94.2708 21.0992 90.8824 20.3654 87.1936C19.6317 83.5048 20.0082 79.6812 21.4475 76.2064C22.8869 72.7316 25.3242 69.7617 28.4515 67.6721C31.5787 65.5826 35.2553 64.4673 39.0164 64.4673V83.4837H58.0328Z" fill="#CB4E0B"/>
<path d="M40.9839 62.5C43.4812 62.5 45.954 62.9918 48.2611 63.9475C50.5683 64.9032 52.6647 66.3039 54.4305 68.0697C56.1963 69.8356 57.5971 71.9319 58.5527 74.2391C59.5084 76.5463 60.0003 79.0191 60.0003 81.5164L40.9839 81.5164L40.9839 62.5Z" fill="#CB4E0B"/>
</svg>
