<svg width="80" height="120" viewBox="0 0 80 120" fill="none" xmlns="http://www.w3.org/2000/svg">
<path d="M59.5859 1L79 20.4141V119H1V1H59.5859Z" fill="white" stroke="#1A7032" stroke-width="2"/>
<path d="M80 20L60 0V20H80Z" fill="#1A7032"/>
<rect x="10" y="65" width="12.5" height="5" fill="#1A7032"/>
<rect x="25.833" y="64.9999" width="12.5" height="5" fill="#1A7032"/>
<rect x="41.667" y="64.9999" width="12.5" height="5" fill="#1A7032"/>
<rect x="57.5" y="64.9999" width="12.5" height="5" fill="#1A7032"/>
<rect x="10" y="74.9999" width="12.5" height="5" fill="#1A7032"/>
<rect x="25.833" y="74.9999" width="12.5" height="5" fill="#1A7032"/>
<rect x="41.667" y="74.9999" width="12.5" height="5" fill="#1A7032"/>
<rect x="57.5" y="74.9999" width="12.5" height="5" fill="#1A7032"/>
<rect x="10" y="84.9999" width="12.5" height="5" fill="#1A7032"/>
<rect x="25.833" y="84.9999" width="12.5" height="5" fill="#1A7032"/>
<rect x="41.667" y="84.9999" width="12.5" height="5" fill="#1A7032"/>
<rect x="57.5" y="84.9999" width="12.5" height="5" fill="#1A7032"/>
<rect x="10" y="28" width="60" height="27" fill="#1A7032"/>
<path d="M34.2151 41.4888V42.0784C34.2151 43.024 34.0869 43.8728 33.8306 44.6248C33.5742 45.3767 33.2125 46.0176 32.7454 46.5474C32.2782 47.0715 31.72 47.4731 31.0706 47.7522C30.4268 48.0313 29.7119 48.1709 28.9258 48.1709C28.1453 48.1709 27.4304 48.0313 26.781 47.7522C26.1373 47.4731 25.579 47.0715 25.1062 46.5474C24.6334 46.0176 24.266 45.3767 24.0039 44.6248C23.7476 43.8728 23.6194 43.024 23.6194 42.0784V41.4888C23.6194 40.5374 23.7476 39.6886 24.0039 38.9424C24.2603 38.1904 24.622 37.5496 25.0891 37.0198C25.5619 36.49 26.1202 36.0855 26.7639 35.8064C27.4133 35.5273 28.1283 35.3877 28.9087 35.3877C29.6948 35.3877 30.4097 35.5273 31.0535 35.8064C31.7029 36.0855 32.2611 36.49 32.7283 37.0198C33.2011 37.5496 33.5657 38.1904 33.822 38.9424C34.0841 39.6886 34.2151 40.5374 34.2151 41.4888ZM31.626 42.0784V41.4717C31.626 40.8109 31.5662 40.2298 31.4465 39.7285C31.3269 39.2272 31.1503 38.8057 30.9167 38.4639C30.6832 38.1221 30.3984 37.8657 30.0623 37.6948C29.7262 37.5182 29.3416 37.4299 28.9087 37.4299C28.4757 37.4299 28.0912 37.5182 27.7551 37.6948C27.4247 37.8657 27.1427 38.1221 26.9092 38.4639C26.6813 38.8057 26.5076 39.2272 26.3879 39.7285C26.2683 40.2298 26.2085 40.8109 26.2085 41.4717V42.0784C26.2085 42.7335 26.2683 43.3145 26.3879 43.8215C26.5076 44.3228 26.6842 44.7472 26.9177 45.0947C27.1513 45.4365 27.4361 45.6957 27.7722 45.8723C28.1083 46.0489 28.4928 46.1372 28.9258 46.1372C29.3587 46.1372 29.7432 46.0489 30.0793 45.8723C30.4154 45.6957 30.6974 45.4365 30.9253 45.0947C31.1532 44.7472 31.3269 44.3228 31.4465 43.8215C31.5662 43.3145 31.626 42.7335 31.626 42.0784ZM39.8804 48H37.1716L37.1887 46.0005H39.8804C40.5526 46.0005 41.1194 45.8495 41.5808 45.5476C42.0422 45.24 42.3897 44.7928 42.6233 44.2061C42.8625 43.6193 42.9822 42.9101 42.9822 42.0784V41.4717C42.9822 40.8337 42.9138 40.2725 42.7771 39.7883C42.6461 39.3041 42.4495 38.8968 42.1875 38.5664C41.9255 38.236 41.6036 37.9882 41.2219 37.823C40.8403 37.6521 40.4016 37.5667 39.906 37.5667H37.1204V35.5586H39.906C40.7377 35.5586 41.4982 35.701 42.1875 35.9858C42.8825 36.265 43.4835 36.6666 43.9905 37.1907C44.4975 37.7148 44.8877 38.3414 45.1611 39.0706C45.4403 39.794 45.5798 40.6001 45.5798 41.4888V42.0784C45.5798 42.9613 45.4403 43.7674 45.1611 44.4966C44.8877 45.2257 44.4975 45.8524 43.9905 46.3765C43.4892 46.8949 42.8882 47.2965 42.1875 47.5813C41.4925 47.8604 40.7235 48 39.8804 48ZM38.6243 35.5586V48H36.0608V35.5586H38.6243ZM53.9197 44.7444C53.9197 44.5222 53.8855 44.3228 53.8171 44.1462C53.7545 43.9639 53.6348 43.7987 53.4583 43.6506C53.2817 43.4968 53.0339 43.3459 52.7148 43.1978C52.3958 43.0496 51.9828 42.8958 51.4758 42.7363C50.9119 42.554 50.3764 42.349 49.8694 42.1211C49.3681 41.8932 48.9237 41.6283 48.5364 41.3264C48.1547 41.0188 47.8528 40.6628 47.6306 40.2583C47.4141 39.8538 47.3059 39.3839 47.3059 38.8484C47.3059 38.33 47.4198 37.86 47.6477 37.4385C47.8756 37.0112 48.1946 36.6466 48.6047 36.3447C49.0149 36.0371 49.4991 35.8007 50.0574 35.6355C50.6213 35.4703 51.2394 35.3877 51.9116 35.3877C52.8288 35.3877 53.6292 35.5529 54.3127 35.8833C54.9963 36.2137 55.5261 36.6666 55.9021 37.2419C56.2838 37.8173 56.4746 38.4753 56.4746 39.2158H53.9282C53.9282 38.8512 53.8513 38.5322 53.6975 38.2588C53.5494 37.9797 53.3215 37.7603 53.0139 37.6008C52.712 37.4413 52.3303 37.3616 51.8689 37.3616C51.4246 37.3616 51.0543 37.4299 50.7581 37.5667C50.4618 37.6977 50.2397 37.8771 50.0916 38.105C49.9434 38.3271 49.8694 38.5778 49.8694 38.8569C49.8694 39.0677 49.9207 39.2585 50.0232 39.4294C50.1314 39.6003 50.2909 39.7598 50.5017 39.908C50.7125 40.0561 50.9717 40.1956 51.2793 40.3267C51.5869 40.4577 51.943 40.5859 52.3474 40.7112C53.0253 40.9163 53.6206 41.147 54.1333 41.4033C54.6517 41.6597 55.0846 41.9473 55.4321 42.2664C55.7796 42.5854 56.0417 42.9471 56.2183 43.3516C56.3949 43.756 56.4832 44.2146 56.4832 44.7273C56.4832 45.2685 56.3778 45.7527 56.167 46.1799C55.9562 46.6072 55.6514 46.9689 55.2527 47.2651C54.8539 47.5614 54.3783 47.7864 53.8257 47.9402C53.2731 48.094 52.655 48.1709 51.9714 48.1709C51.3562 48.1709 50.7495 48.0911 50.1514 47.9316C49.5532 47.7664 49.0092 47.5186 48.5193 47.1882C48.0351 46.8578 47.6477 46.4363 47.3572 45.9236C47.0667 45.4109 46.9214 44.8042 46.9214 44.1035H49.4934C49.4934 44.4909 49.5532 44.8184 49.6729 45.0862C49.7925 45.3539 49.9605 45.5704 50.177 45.7356C50.3992 45.9008 50.6612 46.0204 50.9631 46.0945C51.2708 46.1685 51.6069 46.2056 51.9714 46.2056C52.4158 46.2056 52.7804 46.1429 53.0652 46.0176C53.3557 45.8923 53.5693 45.7185 53.7061 45.4963C53.8485 45.2742 53.9197 45.0235 53.9197 44.7444Z" fill="white"/>
</svg>
