<svg fill="none" height="120" viewBox="0 0 80 120" width="80" xmlns="http://www.w3.org/2000/svg"><path d="m1 119v-118h58.5858l19.4142 19.4142v98.5858z" fill="#fff" stroke="#d32205" stroke-width="2"/><g fill="#d32205"><path d="m80 20-20-20v20z"/><path d="m9.99951 60h59.9997v5h-59.9997z"/><path d="m9.99951 70h59.9997v5h-59.9997z"/><path d="m9.99951 80h30v5h-30z"/><path d="m9.99951 28h60v27h-60z"/></g><path d="m29.8225 43.5652h-3.1702v-1.9995h3.1702c.4899 0 .8887-.0798 1.1963-.2393.3076-.1652.5326-.3931.675-.6836.1425-.2905.2137-.6181.2137-.9826 0-.3703-.0712-.715-.2137-1.034-.1424-.319-.3674-.5753-.675-.769s-.7064-.2905-1.1963-.2905h-2.2815v10.4333h-2.5635v-12.4414h4.845c.9741 0 1.8087.1766 2.5037.5298.7007.3475 1.2361.8288 1.6064 1.4441.3703.6152.5554 1.3187.5554 2.1106 0 .8032-.1851 1.4982-.5554 2.0849-.3703.5868-.9057 1.0397-1.6064 1.3587-.695.319-1.5296.4785-2.5037.4785zm10.2539 4.4348h-2.7087l.0171-1.9995h2.6916c.6722 0 1.239-.151 1.7005-.4529.4614-.3076.8089-.7548 1.0424-1.3415.2393-.5868.3589-1.296.3589-2.1277v-.6067c0-.638-.0683-1.1992-.2051-1.6834-.131-.4842-.3275-.8915-.5896-1.2219-.262-.3304-.5839-.5782-.9655-.7434-.3817-.1709-.8203-.2563-1.3159-.2563h-2.7857v-2.0081h2.7857c.8317 0 1.5922.1424 2.2814.4272.695.2792 1.296.6808 1.803 1.2049s.8972 1.1507 1.1707 1.8799c.2791.7234.4187 1.5295.4187 2.4182v.5896c0 .8829-.1396 1.689-.4187 2.4182-.2735.7291-.6637 1.3558-1.1707 1.8799-.5013.5184-1.1023.92-1.803 1.2048-.6949.2791-1.464.4187-2.3071.4187zm-1.2561-12.4414v12.4414h-2.5635v-12.4414zm11.3818 0v12.4414h-2.5634v-12.4414zm4.9561 5.3149v1.9995h-5.6567v-1.9995zm.5981-5.3149v2.0081h-6.2548v-2.0081z" fill="#fff"/></svg>