<svg xmlns="http://www.w3.org/2000/svg" width="104" height="152" fill="none">
  <path fill="#fff" fill-rule="evenodd" d="M4 4h76l20 20v124H4V4Z" clip-rule="evenodd"/>
  <path fill="#000" fill-opacity=".08" fill-rule="evenodd" d="M81.7 0 104 22.3V152H0V0h81.7ZM4 4h76l20 20v124H4V4Z" clip-rule="evenodd"/>
  <path fill="#0065BD" fill-rule="evenodd" d="M4 4h76l20 20v124H4V4Zm2 142h92V24.8L79.2 6H6v140Z" clip-rule="evenodd"/>
  <path fill="#0065BD" d="M100 24 80 4v20h20ZM16 63h72v6H16zm0 12h72v6H16zm0 12h36v6H16zm0-57h72v27H16z"/>
  <path fill="#fff" d="M40.5 44.6h-3.8v-1.5h3.8a4 4 0 0 0 1.8-.3c.4-.3.8-.6 1-1 .2-.4.3-1 .3-1.4 0-.5-.1-1-.3-1.4a2 2 0 0 0-1-1c-.5-.3-1-.5-1.8-.5h-3.4v12.7h-1.8V36h5.2c1 0 2 .2 2.7.6A4 4 0 0 1 45 38c.4.7.6 1.4.6 2.2 0 1-.2 1.7-.6 2.4a4 4 0 0 1-1.7 1.4c-.7.4-1.6.5-2.7.5Zm11.2 5.6h-3v-1.5h3c1 0 1.9-.2 2.6-.6a4 4 0 0 0 1.5-1.8c.3-.8.5-1.7.5-2.8v-.8c0-.8-.1-1.6-.3-2.2-.2-.6-.5-1.2-.9-1.6-.3-.5-.8-.8-1.3-1a6 6 0 0 0-2-.4h-3.1V36h3.2c1 0 1.8.2 2.5.5a5.7 5.7 0 0 1 3.3 3.4c.3.8.5 1.8.5 2.8v.8c0 1-.2 2-.5 2.8a5.8 5.8 0 0 1-3.3 3.5c-.8.3-1.7.4-2.7.4Zm-2-14.2v14.2H48V36h1.9Zm13.2 0v14.2h-2V36h2Zm6 6.4v1.5h-6.4v-1.5h6.3Zm.9-6.4v1.5h-7.3V36h7.3Z"/>
</svg>
