<svg xmlns="http://www.w3.org/2000/svg" width="104" height="152" fill="none">
  <path fill="#fff" fill-rule="evenodd" d="M4 4h76l20 20v124H4V4Z" clip-rule="evenodd"/>
  <path fill="#000" fill-opacity=".08" fill-rule="evenodd" d="M81.7 0 104 22.3V152H0V0h81.7ZM4 4h76l20 20v124H4V4Z" clip-rule="evenodd"/>
  <path fill="#0065BD" fill-rule="evenodd" d="M4 4h76l20 20v124H4V4Zm2 142h92V24.8L79.2 6H6v140Z" clip-rule="evenodd"/>
  <path fill="#0065BD" d="M100 24 80 4v20h20Zm-84 6h72v27H16z"/>
  <path fill="#fff" d="M40.3 44.4h-3.8V43h3.8a4 4 0 0 0 1.8-.4c.5-.2.8-.5 1-1 .2-.4.3-.8.3-1.4 0-.5 0-1-.3-1.3-.2-.5-.5-.8-1-1-.5-.3-1-.5-1.8-.5H37V50h-2V35.8h5.3c1 0 2 .2 2.7.5a4 4 0 0 1 1.7 1.6c.4.6.6 1.4.6 2.2 0 1-.2 1.7-.6 2.4-.4.6-1 1-1.7 1.4-.7.4-1.6.5-2.7.5Zm12.7 0h-4V43h4a4 4 0 0 0 1.8-.4c.5-.2.8-.5 1-1 .2-.4.3-.8.3-1.4 0-.5 0-1-.3-1.3-.2-.5-.5-.8-1-1a3 3 0 0 0-1.8-.5h-3.3V50h-2V35.8H53c1.1 0 2 .2 2.8.5a4 4 0 0 1 1.6 1.6c.4.6.6 1.4.6 2.2 0 1-.2 1.7-.6 2.4-.3.6-1 1-1.6 1.4-.8.4-1.7.5-2.8.5Zm12.6-8.6V50h-1.9V35.8h1.9Zm4.5 0v1.5h-11v-1.5h11Z"/>
  <path fill="#0065BD" d="M73.6 95.2a22.8 22.8 0 1 1-22.8-22.8v22.8h22.8Z"/>
  <path fill="#0065BD" d="M53.2 70A22.8 22.8 0 0 1 76 92.8H53.2V70Z"/>
</svg>
