<svg xmlns="http://www.w3.org/2000/svg" width="104" height="152" fill="none">
  <path fill="#fff" fill-rule="evenodd" d="M4 4h76l20 20v124H4V4Z" clip-rule="evenodd"/>
  <path fill="#000" fill-opacity=".08" fill-rule="evenodd" d="M81.7 0 104 22.3V152H0V0h81.7ZM4 4h76l20 20v124H4V4Z" clip-rule="evenodd"/>
  <path fill="#0065BD" fill-rule="evenodd" d="M4 4h76l20 20v124H4V4Zm2 142h92V24.8L79.2 6H6v140Z" clip-rule="evenodd"/>
  <path fill="#0065BD" d="M100 24 80 4v20h20ZM16 63h72v6H16zm0 12h72v6H16zm0 12h36v6H16zm0-57h72v27H16z"/>
  <path fill="#fff" d="M36.4 35.8H41c1 0 2 .1 2.7.5a4 4 0 0 1 1.7 1.4c.4.6.6 1.4.6 2.3a3.8 3.8 0 0 1-1.5 3.2 5 5 0 0 1-1.8.8l-.5.2h-4.5v-1.5h3.4c.6 0 1.2-.1 1.6-.3a2.7 2.7 0 0 0 1.4-2.3c0-.6-.1-1-.3-1.5-.2-.4-.6-.7-1-1a4 4 0 0 0-1.8-.3h-2.8V50h-2V35.8ZM44.7 50l-3.5-6.4h2l3.5 6.3v.1h-2Zm8.5-14.2V50h-1.9V35.8h1.9Zm4.6 0v1.5h-11v-1.5h11Zm3.9 0V50H60V35.8h1.8Zm6 6.4v1.5h-6.4v-1.5h6.4Zm1-6.4v1.5h-7.4v-1.5h7.4Z"/>
</svg>
