<svg xmlns="http://www.w3.org/2000/svg" width="104" height="152" fill="none">
  <path fill="#fff" fill-rule="evenodd" d="M4 4h76l20 20v124H4V4Z" clip-rule="evenodd"/>
  <path fill="#000" fill-opacity=".08" fill-rule="evenodd" d="M81.7 0 104 22.3V152H0V0h81.7ZM4 4h76l20 20v124H4V4Z" clip-rule="evenodd"/>
  <path fill="#0065BD" fill-rule="evenodd" d="M4 4h76l20 20v124H4V4Zm2 142h92V24.8L79.2 6H6v140Z" clip-rule="evenodd"/>
  <path fill="#0065BD" d="M100 24 80 4v20h20ZM16 63h72v6H16zm0 12h72v6H16zm0 12h36v6H16zm0-57h72v27H16z"/>
  <path fill="#fff" d="M39.9 35.8V50H38V35.8h2Zm4.6 0v1.5h-11v-1.5h11Zm5.2 14.4c-.7 0-1.4-.1-2-.4a4.5 4.5 0 0 1-2.5-2.7 6 6 0 0 1-.3-2v-.4c0-.9 0-1.6.3-2.3.3-.7.6-1.3 1-1.7a4.4 4.4 0 0 1 5.2-1c.6.2 1 .6 1.4 1 .3.5.6 1 .8 1.7l.2 2v.8H46v-1.5h6c0-.6-.1-1-.3-1.5-.1-.4-.4-.8-.8-1a2 2 0 0 0-1.4-.5 2.5 2.5 0 0 0-2 1c-.3.4-.5.8-.6 1.3-.2.5-.2 1-.2 1.7v.4c0 .5 0 1 .2 1.4l.6 1.2 1 .7c.4.2.8.3 1.3.3.6 0 1.2-.1 1.6-.4a4 4 0 0 0 1.2-1l1 .9a5 5 0 0 1-.8 1c-.3.3-.8.5-1.3.7a5 5 0 0 1-1.8.3Zm7.4-10.8 2.4 3.9 2.3-3.9h2.1l-3.4 5.2L64 50h-2l-2.5-4-2.4 4H55l3.5-5.4-3.4-5.2h2Zm13.2 0v1.4h-5.7v-1.4h5.7ZM66.5 37h1.8v10.5c0 .3 0 .6.2.8 0 .2.2.3.4.4h.6a3 3 0 0 0 .8 0V50l-.5.1-.9.1c-.4 0-.8 0-1.2-.3a2 2 0 0 1-.9-.8c-.2-.5-.3-1-.3-1.7V36.9Z"/>
</svg>
