<svg fill="none" height="120" viewBox="0 0 80 120" width="80" xmlns="http://www.w3.org/2000/svg"><path d="m1 119v-118.000122h58.5857l19.4142 19.414222v98.5859z" fill="#fff" stroke="#5e5e5e" stroke-width="2"/><path d="m80 19.9998-20-19.99992207v19.99992207z" fill="#5e5e5e"/><path d="m1 119v-118.000122h58.5857l19.4142 19.414222v98.5859z" fill="#fff" stroke="#5e5e5e" stroke-width="2"/><path d="m80 19.9998-20-19.99992207v19.99992207z" fill="#5e5e5e"/><path d="m9.99951 27.4999h59.9999v27.5h-59.9999z" fill="#5e5e5e"/><path d="m22.9695 44.9022 2.9309-9.8437h2.854l-4.3323 12.4414h-1.8799zm-2.7002-9.8437 2.9223 9.8437.4444 2.5977h-1.897l-4.3066-12.4414zm12.091 3.1958v9.2456h-2.4695v-9.2456zm-2.6233-2.4097c0-.3589.1254-.6551.376-.8886.2507-.2336.5868-.3504 1.0083-.3504.4159 0 .7491.1168.9998.3504.2563.2335.3845.5297.3845.8886s-.1282.6551-.3845.8887c-.2507.2336-.5839.3503-.9998.3503-.4215 0-.7576-.1167-1.0083-.3503-.2506-.2336-.376-.5298-.376-.8887zm10.1172 9.6387v-11.1084h2.478v13.125h-2.2302zm-5.8447-2.4951v-.1795c0-.7064.0797-1.3472.2392-1.9226.1596-.581.3931-1.0795.7007-1.4953.3076-.4159.6865-.7378 1.1365-.9656.45-.2279.9627-.3418 1.5381-.3418.5412 0 1.014.1139 1.4184.3418.4102.2278.7577.5526 1.0425.9741.2905.4159.5241.9086.7007 1.4783.1766.5639.3048 1.182.3845 1.8542v.3931c-.0797.6437-.2079 1.2418-.3845 1.7944s-.4102 1.0368-.7007 1.4526c-.2848.4102-.6323.7292-1.0425.9571-.4101.2278-.8886.3418-1.4355.3418-.5754 0-1.0881-.1168-1.5381-.3504-.4443-.2335-.8203-.5611-1.1279-.9826-.3019-.4216-.5326-.9172-.6922-1.4868-.1595-.5697-.2392-1.1906-.2392-1.8628zm2.4609-.1795v.1795c0 .3816.0285.7377.0855 1.0681.0626.3304.1623.6238.299.8801.1425.2507.3247.4472.5469.5896.2279.1367.5042.2051.8289.2051.4215 0 .769-.094 1.0425-.282.2734-.1937.4813-.4586.6237-.7947.1481-.3361.2336-.7234.2564-1.1621v-1.1194c-.0171-.3589-.0684-.6807-.1538-.9655-.0798-.2906-.1994-.5384-.3589-.7434-.1538-.2051-.3475-.3646-.5811-.4786-.2278-.1139-.4984-.1709-.8117-.1709-.319 0-.5925.0741-.8203.2222-.2279.1424-.4131.339-.5555.5896-.1367.2507-.2392.5469-.3076.8887-.0626.3361-.094.7007-.094 1.0937zm12.0398 4.8621c-.7178 0-1.3615-.114-1.9311-.3418-.5697-.2336-1.0539-.5554-1.4527-.9656-.393-.4102-.695-.8858-.9057-1.427-.2108-.5469-.3162-1.1279-.3162-1.7432v-.3418c0-.7006.0997-1.3415.2991-1.9226.1993-.581.4842-1.0852.8545-1.5124.3759-.4273.8317-.7548 1.3671-.9827.5355-.2335 1.1394-.3503 1.8116-.3503.6551 0 1.2361.1082 1.7431.3247s.9314.5241 1.2732.9228c.3475.3988.6096.8773.7861 1.4356.1766.5526.2649 1.1678.2649 1.8457v1.0254h-7.3486v-1.6406h4.9304v-.188c0-.3418-.0626-.6466-.188-.9143-.1196-.2735-.3019-.4899-.5468-.6495-.245-.1595-.5583-.2392-.94-.2392-.3247 0-.6038.0712-.8374.2136-.2335.1424-.4244.3418-.5725.5982-.1424.2563-.2506.5582-.3247.9057-.0683.3418-.1025.7178-.1025 1.1279v.3418c0 .3703.0512.7121.1538 1.0254.1082.3133.2592.5839.4529.8118.1993.2279.4386.4045.7177.5298.2849.1253.6067.188.9656.188.4443 0 .8573-.0855 1.239-.2564.3874-.1766.7206-.4415.9998-.7947l1.1963 1.2989c-.1937.2791-.4586.5468-.7947.8032-.3304.2563-.7292.4671-1.1963.6323-.4671.1595-.9998.2393-1.5979.2393zm4.8022-4.6997v-.1795c0-.6779.0969-1.3016.2906-1.8713.1936-.5754.4756-1.0738.8459-1.4954.3703-.4215.826-.7491 1.3672-.9826.5412-.2393 1.1621-.3589 1.8628-.3589s1.3244.1196 1.8713.3589c.5469.2335 1.0055.5611 1.3758.9826.3759.4216.6608.92.8544 1.4954.1937.5697.2906 1.1934.2906 1.8713v.1795c0 .6722-.0969 1.296-.2906 1.8713-.1936.5697-.4785 1.0681-.8544 1.4954-.3703.4215-.8261.7491-1.3672.9826-.5412.2336-1.1621.3504-1.8628.3504s-1.3245-.1168-1.8714-.3504c-.5411-.2335-.9997-.5611-1.3757-.9826-.3703-.4273-.6523-.9257-.8459-1.4954-.1937-.5753-.2906-1.1991-.2906-1.8713zm2.461-.1795v.1795c0 .3873.0342.7491.1025 1.0852.0684.3361.1766.6323.3247.8886.1538.2507.3532.4472.5982.5896.2449.1425.544.2137.8972.2137.3418 0 .6351-.0712.8801-.2137.245-.1424.4415-.3389.5896-.5896.1481-.2563.2563-.5525.3247-.8886.0741-.3361.1111-.6979.1111-1.0852v-.1795c0-.3759-.037-.7291-.1111-1.0595-.0684-.3361-.1794-.6324-.3332-.8887-.1482-.2621-.3447-.4671-.5896-.6152-.245-.1482-.5412-.2222-.8887-.2222s-.6437.074-.8887.2222c-.2392.1481-.4358.3531-.5896.6152-.1481.2563-.2563.5526-.3247.8887-.0683.3304-.1025.6836-.1025 1.0595z" fill="#fff"/><circle cx="38.9619" cy="84.5314" fill="#5e5e5e" r="19.857"/><path d="m51.0889 84.1856-18.6227 10.6069v-21.2138z" fill="#fff"/></svg>