<?xml version="1.0" encoding="utf-8"?>
<!-- Generator: Adobe Illustrator 27.2.0, SVG Export Plug-In . SVG Version: 6.00 Build 0)  -->
<svg version="1.1" id="Layer_1" xmlns="http://www.w3.org/2000/svg" xmlns:xlink="http://www.w3.org/1999/xlink" x="0px" y="0px"
	 viewBox="0 0 80 120" style="enable-background:new 0 0 80 120;" xml:space="preserve">
<style type="text/css">
	.st0{fill:#FFFFFF;stroke:#0065BD;stroke-width:2;}
	.st1{fill:#0065BD;}
	.st2{fill:#FFFFFF;}
</style>
<path class="st0" d="M1,119V1h58.6L79,20.4V119H1z"/>
<path class="st1" d="M80,20L60,0v20H80z"/>
<rect x="10" y="60" class="st1" width="60" height="5"/>
<rect x="10" y="70" class="st1" width="60" height="5"/>
<rect x="10" y="80" class="st1" width="30" height="5"/>
<rect x="10" y="28" class="st1" width="60" height="27"/>
<path class="st2" d="M23.6,46l2.5-10.5h1.4l0.3,1.7L25.1,48h-1.5L23.6,46z M22.3,35.6L24.4,46l-0.2,2h-1.7l-2.8-12.4H22.3z M30,46
	l2-10.4h2.5L31.8,48h-1.7L30,46z M28.2,35.6l2.5,10.5L30.7,48h-1.5l-2.7-10.7l0.3-1.7H28.2z M35.1,43.5v-0.2c0-0.7,0.1-1.3,0.3-1.9
	c0.2-0.6,0.5-1.1,0.8-1.5c0.4-0.4,0.8-0.7,1.4-1c0.5-0.2,1.2-0.4,1.9-0.4c0.7,0,1.3,0.1,1.9,0.4c0.5,0.2,1,0.6,1.4,1
	c0.4,0.4,0.7,0.9,0.9,1.5c0.2,0.6,0.3,1.2,0.3,1.9v0.2c0,0.7-0.1,1.3-0.3,1.9c-0.2,0.6-0.5,1.1-0.9,1.5c-0.4,0.4-0.8,0.7-1.4,1
	c-0.5,0.2-1.2,0.4-1.9,0.4c-0.7,0-1.3-0.1-1.9-0.4c-0.5-0.2-1-0.6-1.4-1c-0.4-0.4-0.7-0.9-0.8-1.5C35.2,44.8,35.1,44.1,35.1,43.5z
	 M37.6,43.3v0.2c0,0.4,0,0.7,0.1,1.1c0.1,0.3,0.2,0.6,0.3,0.9c0.2,0.3,0.4,0.4,0.6,0.6c0.2,0.1,0.5,0.2,0.9,0.2
	c0.3,0,0.6-0.1,0.9-0.2c0.2-0.1,0.4-0.3,0.6-0.6c0.1-0.3,0.3-0.6,0.3-0.9c0.1-0.3,0.1-0.7,0.1-1.1v-0.2c0-0.4,0-0.7-0.1-1.1
	c-0.1-0.3-0.2-0.6-0.3-0.9c-0.1-0.3-0.3-0.5-0.6-0.6c-0.2-0.1-0.5-0.2-0.9-0.2s-0.6,0.1-0.9,0.2c-0.2,0.1-0.4,0.4-0.6,0.6
	c-0.1,0.3-0.3,0.6-0.3,0.9C37.6,42.6,37.6,42.9,37.6,43.3z M47.8,40.8V48h-2.5v-9.2h2.3L47.8,40.8z M50.6,38.7l0,2.3
	c-0.1,0-0.3,0-0.4,0c-0.2,0-0.3,0-0.5,0c-0.3,0-0.6,0-0.9,0.1c-0.3,0.1-0.5,0.2-0.6,0.4c-0.2,0.2-0.3,0.4-0.4,0.6
	c-0.1,0.2-0.1,0.5-0.1,0.8l-0.5-0.2c0-0.6,0.1-1.1,0.2-1.6c0.1-0.5,0.3-0.9,0.5-1.3c0.2-0.4,0.5-0.7,0.9-0.9
	c0.3-0.2,0.7-0.3,1.2-0.3c0.1,0,0.3,0,0.4,0C50.4,38.6,50.5,38.7,50.6,38.7z M57.1,46V34.9h2.5V48h-2.2L57.1,46z M51.2,43.5v-0.2
	c0-0.7,0.1-1.3,0.2-1.9c0.2-0.6,0.4-1.1,0.7-1.5c0.3-0.4,0.7-0.7,1.1-1c0.5-0.2,1-0.3,1.5-0.3c0.5,0,1,0.1,1.4,0.3
	c0.4,0.2,0.8,0.6,1,1c0.3,0.4,0.5,0.9,0.7,1.5c0.2,0.6,0.3,1.2,0.4,1.9v0.4c-0.1,0.6-0.2,1.2-0.4,1.8c-0.2,0.6-0.4,1-0.7,1.5
	c-0.3,0.4-0.6,0.7-1,1c-0.4,0.2-0.9,0.3-1.4,0.3c-0.6,0-1.1-0.1-1.5-0.4c-0.4-0.2-0.8-0.6-1.1-1c-0.3-0.4-0.5-0.9-0.7-1.5
	C51.3,44.8,51.2,44.2,51.2,43.5z M53.7,43.3v0.2c0,0.4,0,0.7,0.1,1.1c0.1,0.3,0.2,0.6,0.3,0.9c0.1,0.3,0.3,0.4,0.5,0.6
	c0.2,0.1,0.5,0.2,0.8,0.2c0.4,0,0.8-0.1,1-0.3c0.3-0.2,0.5-0.5,0.6-0.8c0.1-0.3,0.2-0.7,0.3-1.2v-1.1c0-0.4-0.1-0.7-0.2-1
	c-0.1-0.3-0.2-0.5-0.4-0.7c-0.2-0.2-0.3-0.4-0.6-0.5c-0.2-0.1-0.5-0.2-0.8-0.2c-0.3,0-0.6,0.1-0.8,0.2c-0.2,0.1-0.4,0.3-0.6,0.6
	c-0.1,0.3-0.2,0.5-0.3,0.9C53.7,42.6,53.7,42.9,53.7,43.3z"/>
</svg>
