<svg xmlns="http://www.w3.org/2000/svg" width="104" height="152" fill="none">
  <path fill="#fff" fill-rule="evenodd" d="M4 4h76l20 20v124H4V4Z" clip-rule="evenodd"/>
  <path fill="#000" fill-opacity=".08" fill-rule="evenodd" d="M81.7 0 104 22.3V152H0V0h81.7ZM4 4h76l20 20v124H4V4Z" clip-rule="evenodd"/>
  <path fill="#0065BD" fill-rule="evenodd" d="M4 4h76l20 20v124H4V4Zm2 142h92V24.8L79.2 6H6v140Z" clip-rule="evenodd"/>
  <path fill="#0065BD" d="M100 24 80 4v20h20ZM16 63h72v6H16zm0 12h72v6H16zm0 12h36v6H16zm0-57h72v27H16z"/>
  <path fill="#fff" d="m34 45.7 2.9-10h1.3l-.8 4-3 10.3H33l1-4.3Zm-2.9-10 2.3 9.8.6 4.5h-1.3l-3.5-14.2h2ZM42 45.6l2.2-9.7H46L42.5 50h-1.3l.7-4.5Zm-3.5-9.7 2.8 9.9 1 4.3h-1.4l-3-10.4-.7-3.8h1.3Zm8.5 8.9v-.2c0-.8 0-1.5.3-2.1a5 5 0 0 1 1-1.7c.4-.5.9-.9 1.5-1.2a6 6 0 0 1 2-.4c.7 0 1.4.2 2 .4.6.3 1 .7 1.5 1.2l1 1.7c.2.6.3 1.3.3 2.1v.2c0 .8-.1 1.5-.3 2.2a5 5 0 0 1-1 1.7 4.4 4.4 0 0 1-3.5 1.5 4.5 4.5 0 0 1-4.5-3.2c-.2-.7-.3-1.4-.3-2.2Zm1.8-.2v.2c0 .6 0 1 .2 1.5l.5 1.3 1 .8c.4.2.8.3 1.3.3s1 0 1.3-.3l1-.8.5-1.3.2-1.5v-.2c0-.5 0-1-.2-1.5L54 42c-.2-.4-.5-.7-1-.9-.3-.2-.7-.3-1.2-.3s-1 .1-1.3.3c-.4.2-.7.5-1 .9a4 4 0 0 0-.5 1c-.2.5-.2 1-.2 1.5ZM60.7 41v9h-1.8V39.4h1.7v1.7Zm3.3-1.6V41l-.5-.1h-.4c-.4 0-.8 0-1.1.2l-.8.5-.6.9a4 4 0 0 0-.2 1l-.5.3c0-.6 0-1.2.2-1.8.1-.6.3-1 .6-1.5a3 3 0 0 1 1-1 2.9 2.9 0 0 1 2.3-.2Zm8.1 8.6V35H74v15h-1.6l-.2-2ZM65 44.7v-.2c0-.8.1-1.5.3-2.2l.8-1.7c.4-.5.9-.8 1.4-1 .5-.3 1-.5 1.7-.5a4 4 0 0 1 1.7.4c.5.2 1 .6 1.3 1l.8 1.6c.2.6.4 1.3.4 2v1c0 .8-.2 1.4-.4 2a5 5 0 0 1-.8 1.6 3 3 0 0 1-1.3 1 4.2 4.2 0 0 1-3.4 0 4 4 0 0 1-1.4-1.1c-.3-.5-.6-1-.8-1.7-.2-.7-.3-1.4-.3-2.2Zm1.8-.2v.2c0 .6 0 1 .2 1.5 0 .5.3.9.5 1.2.2.4.5.7.8.9.4.2.8.3 1.3.3.6 0 1.1-.2 1.5-.4l1-1 .5-1.4v-2.3l-.4-1-.5-1-.9-.6c-.3-.2-.7-.2-1.2-.2s-.9 0-1.3.3l-.8.8L67 43l-.2 1.5Z"/>
</svg>
