<svg xmlns="http://www.w3.org/2000/svg" width="104" height="152" fill="none">
  <path fill="#fff" fill-rule="evenodd" d="M4 4h76l20 20v124H4V4Z" clip-rule="evenodd"/>
  <path fill="#000" fill-opacity=".08" fill-rule="evenodd" d="M81.7 0 104 22.3V152H0V0h81.7ZM4 4h76l20 20v124H4V4Z" clip-rule="evenodd"/>
  <path fill="#0065BD" fill-rule="evenodd" d="M4 4h76l20 20v124H4V4Zm2 142h92V24.8L79.2 6H6v140Z" clip-rule="evenodd"/>
  <path fill="#0065BD" d="M100 24 80 4v20h20ZM16 63h72v6H16zm0 12h72v6H16zm0 12h36v6H16zm0-57h72v27H16z"/>
  <path fill="#fff" d="m34.5 35.8 3.4 5.4 3.4-5.4h2.2l-4.5 7 4.6 7.2h-2.2l-3.5-5.6-3.5 5.6h-2.2l4.6-7.2-4.5-7h2.2Zm11.9 0h1.8L53 47.4l4.6-11.6h1.9L53.6 50h-1.4l-5.8-14.2Zm-.6 0h1.6l.3 8.7V50h-1.9V35.8Zm12.5 0H60V50h-1.8v-5.5l.2-8.7Zm13.6 12.7V50h-7.1v-1.5h7ZM65 35.8V50h-1.8V35.8H65Z"/>
</svg>
