<?xml version="1.0" encoding="utf-8"?>
<!-- Generator: Adobe Illustrator 27.2.0, SVG Export Plug-In . SVG Version: 6.00 Build 0)  -->
<svg version="1.1" id="Layer_1" xmlns="http://www.w3.org/2000/svg" xmlns:xlink="http://www.w3.org/1999/xlink" x="0px" y="0px"
	 viewBox="0 0 80 120" style="enable-background:new 0 0 80 120;" xml:space="preserve">
<style type="text/css">
	.st0{fill:#FFFFFF;stroke:#0065BD;stroke-width:2;}
	.st1{fill:#0065BD;}
	.st2{fill:#FFFFFF;}
</style>
<path class="st0" d="M1,119V1h58.6L79,20.4V119H1z"/>
<path class="st1" d="M80,20L60,0v20H80z"/>
<rect x="10" y="60" class="st1" width="60" height="5"/>
<rect x="10" y="70" class="st1" width="60" height="5"/>
<rect x="10" y="80" class="st1" width="30" height="5"/>
<rect x="10" y="28" class="st1" width="60" height="27"/>
<path class="st2" d="M25.3,35.6l2.3,4.3l2.3-4.3h2.9l-3.6,6.2L33,48h-3l-2.4-4.4L25.2,48h-3l3.7-6.3l-3.6-6.2H25.3z M35.4,35.6h2.2
	l3.2,9.1l3.2-9.1h2.2L41.7,48h-1.7L35.4,35.6z M34.3,35.6h2.2l0.4,8.9V48h-2.6V35.6z M45.2,35.6h2.2V48h-2.6v-3.5L45.2,35.6z
	 M57.6,46v2h-6.3v-2H57.6z M52.2,35.6V48h-2.6V35.6H52.2z"/>
</svg>
