<svg fill="none" height="120" viewBox="0 0 80 120" width="80" xmlns="http://www.w3.org/2000/svg"><path d="m1 119v-118.000244h58.5858l19.4142 19.414244v98.586z" fill="#fff" stroke="#5e5e5e" stroke-width="2"/><g fill="#5e5e5e"><path d="m80 19.9998-20-20.00004414v20.00004414z"/><path d="m10 59.9998h59.9997v5h-59.9997z"/><path d="m10 69.9998h59.9997v5h-59.9997z"/><path d="m10 79.9998h30v5h-30z"/><path d="m10 27.9998h60v27h-60z"/></g><path d="m37.5562 46.0002v1.9996h-8.8184v-1.9996zm-.1282-9.0148-7.5537 11.0144h-1.803v-1.4698l7.6135-10.9717h1.7432zm-.8801-1.4271v2.0081h-8.4681v-2.0081zm5.0842 3.1959v9.2456h-2.4695v-9.2456zm-2.6233-2.4097c0-.3589.1253-.6551.376-.8887.2506-.2336.5867-.3503 1.0083-.3503.4158 0 .7491.1167.9997.3503.2564.2336.3845.5298.3845.8887s-.1281.6551-.3845.8887c-.2506.2335-.5839.3503-.9997.3503-.4216 0-.7577-.1168-1.0083-.3503-.2507-.2336-.376-.5298-.376-.8887zm7.1179 4.187v11.0229h-2.4609v-12.8002h2.2815zm5.8533 2.7429v.1795c0 .6722-.0798 1.2959-.2393 1.8713-.1538.5754-.3817 1.0767-.6836 1.5039-.3019.4216-.6779.752-1.1279.9912-.4443.2336-.957.3504-1.5381.3504-.564 0-1.0539-.114-1.4697-.3418-.4159-.2279-.7662-.5469-1.051-.9571-.2792-.4158-.5042-.8972-.6751-1.4441-.1709-.5468-.3019-1.1336-.3931-1.7602v-.47c.0912-.6722.2222-1.2874.3931-1.8457.1709-.564.3959-1.051.6751-1.4612.2848-.4158.6323-.7377 1.0424-.9656.4159-.2278.903-.3417 1.4612-.3417.5868 0 1.1023.111 1.5467.3332.45.2222.826.5412 1.1279.957.3076.4159.5383.9115.6921 1.4869.1595.5753.2393 1.2133.2393 1.914zm-2.4695.1795v-.1795c0-.3931-.0342-.7548-.1025-1.0852-.0627-.3361-.1652-.6295-.3077-.8801-.1367-.2507-.319-.4444-.5468-.5811-.2222-.1424-.4928-.2136-.8118-.2136-.3361 0-.6238.0541-.863.1624-.2336.1082-.4244.2649-.5725.4699-.1482.2051-.2592.4501-.3333.7349s-.1196.6067-.1367.9656v1.1877c.0285.4216.1082.8004.2392 1.1365.1311.3304.3333.5924.6067.7861.2735.1937.6324.2905 1.0767.2905.3247 0 .5981-.0712.8203-.2136.2222-.1481.4016-.3503.5383-.6067.1424-.2563.2421-.5525.2991-.8886.0627-.3361.094-.6979.094-1.0852z" fill="#fff"/></svg>