<svg fill="none" height="120" viewBox="0 0 80 120" width="80" xmlns="http://www.w3.org/2000/svg"><path d="m1 119v-118.000244h58.5858l19.4142 19.414244v98.586z" fill="#fff" stroke="#5e5e5e" stroke-width="2"/><g fill="#5e5e5e"><path d="m80 19.9998-20-20.00004414v20.00004414z"/><path d="m10 59.9998h59.9997v5h-59.9997z"/><path d="m10 69.9998h59.9997v5h-59.9997z"/><path d="m10 79.9998h30v5h-30z"/><path d="m10 27.9998h60v27h-60z"/></g><path d="m29.5154 35.5583v12.4415h-2.5635v-12.4415zm4.956 5.315v1.9995h-5.6567v-1.9995zm.5982-5.315v2.0081h-6.2549v-2.0081zm3.9306 3.1959v9.2456h-2.4694v-9.2456zm-2.6232-2.4097c0-.3589.1253-.6551.3759-.8887.2507-.2336.5868-.3503 1.0083-.3503.4159 0 .7491.1167.9998.3503.2563.2336.3845.5298.3845.8887s-.1282.6551-.3845.8887c-.2507.2335-.5839.3503-.9998.3503-.4215 0-.7576-.1168-1.0083-.3503-.2506-.2336-.3759-.5298-.3759-.8887zm7.2546-1.4697v13.125h-2.4695v-13.125zm6.2891 13.2959c-.7178 0-1.3615-.114-1.9312-.3418-.5697-.2336-1.0539-.5555-1.4526-.9656-.3931-.4102-.695-.8858-.9058-1.427-.2108-.5469-.3162-1.128-.3162-1.7432v-.3418c0-.7007.0997-1.3415.2991-1.9226.1994-.581.4842-1.0852.8545-1.5124.376-.4273.8317-.7548 1.3672-.9827.5355-.2336 1.1393-.3503 1.8115-.3503.6551 0 1.2362.1082 1.7432.3247.507.2164.9314.524 1.2732.9228.3475.3988.6095.8773.7861 1.4356.1766.5525.2649 1.1678.2649 1.8457v1.0254h-7.3486v-1.6407h4.9304v-.188c0-.3418-.0627-.6465-.188-.9143-.1196-.2734-.3019-.4899-.5469-.6494-.2449-.1595-.5582-.2392-.9399-.2392-.3247 0-.6039.0712-.8374.2136-.2336.1424-.4244.3418-.5725.5981-.1424.2564-.2507.5583-.3247.9058-.0684.3418-.1026.7178-.1026 1.1279v.3418c0 .3703.0513.7121.1538 1.0254.1083.3133.2592.5839.4529.8118.1994.2278.4387.4044.7178.5298.2848.1253.6067.1879.9656.1879.4443 0 .8573-.0854 1.239-.2563.3873-.1766.7206-.4415.9997-.7947l1.1963 1.2988c-.1937.2792-.4586.5469-.7947.8033-.3304.2563-.7291.4671-1.1962.6323-.4672.1595-.9998.2393-1.5979.2393z" fill="#fff"/></svg>