<svg fill="none" height="120" viewBox="0 0 80 120" width="80" xmlns="http://www.w3.org/2000/svg"><path d="m.999512 119v-118h58.585788l19.4142 19.4142v98.5858z" fill="#fff" stroke="#428542" stroke-width="2"/><path d="m79.9995 20-20-20v20z" fill="#428542"/><path d="m9.99951 78h60v27h-60z" fill="#428542"/><path d="m22.7784 90.8907v3.8739c-.1521.1836-.3871.3827-.7049.5976-.3178.2104-.7273.3916-1.2287.5438-.5013.1522-1.1077.2283-1.8194.2283-.6311 0-1.2063-.103-1.7255-.3089-.5192-.2103-.9668-.5169-1.3427-.9198-.3715-.4028-.658-.8951-.8594-1.477-.2014-.5864-.3021-1.2555-.3021-2.0075v-.6109c0-.752.0962-1.4211.2887-2.0075.1969-.5863.4766-1.0809.8392-1.4837.3625-.4029.7945-.7095 1.2958-.9198.5013-.2104 1.0585-.3156 1.6717-.3156.8504 0 1.5487.1388 2.0947.4163.5461.273.9624.6535 1.2488 1.1413.291.4834.47 1.0384.5371 1.6651h-1.9537c-.0492-.3312-.1432-.6199-.282-.8661-.1387-.2462-.3379-.4387-.5975-.5774-.2552-.1388-.5864-.2081-.9937-.2081-.3357 0-.6356.0693-.8996.2081-.2596.1343-.479.3334-.658.5975s-.3155.5908-.4095.9803c-.094.3894-.141.8414-.141 1.3562v.6243c0 .5103.0492.9624.1477 1.3562.0984.3894.2439.7184.4364.987.1969.2641.4386.4632.7251.5975.2864.1343.6199.2014 1.0003.2014.3178 0 .5819-.0268.7923-.0805.2148-.0537.3871-.1186.5169-.1947.1343-.0806.2373-.1567.3089-.2283v-1.7322h-1.8396v-1.4368zm4.8475 5.2436c-.564 0-1.0698-.0895-1.5174-.2686-.4476-.1835-.828-.4364-1.1413-.7586-.3089-.3223-.5461-.696-.7117-1.1213-.1656-.4296-.2484-.8862-.2484-1.3696v-.2685c0-.5506.0783-1.0541.235-1.5107.1566-.4565.3804-.8526.6714-1.1883.2954-.3357.6534-.5931 1.0742-.7721.4207-.1835.8952-.2753 1.4233-.2753.5147 0 .9713.0851 1.3696.2551.3984.1701.7319.4118 1.0004.7251.273.3134.4789.6893.6177 1.128.1387.4341.2081.9175.2081 1.4502v.8056h-5.7739v-1.289h3.8739v-.1477c0-.2686-.0492-.5081-.1477-.7184-.094-.2149-.2372-.3849-.4297-.5103-.1925-.1253-.4386-.188-.7385-.188-.2552 0-.4745.056-.658.1679s-.3334.2685-.4498.47c-.1119.2014-.197.4386-.2551.7116-.0538.2686-.0806.564-.0806.8863v.2685c0 .2909.0403.5595.1208.8057.0851.2462.2037.4588.3559.6378.1566.179.3446.3178.5639.4163.2238.0984.4767.1477.7587.1477.3491 0 .6736-.0672.9735-.2015.3044-.1387.5662-.3468.7855-.6243l.94 1.0205c-.1522.2193-.3603.4296-.6244.6311-.2596.2014-.5729.367-.94.4968-.367.1253-.7855.188-1.2554.188zm3.7731-3.6926v-.141c0-.5327.0761-1.0228.2283-1.4704.1522-.452.3738-.8437.6647-1.1749s.649-.5886 1.0742-.7721c.4252-.188.9131-.282 1.4636-.282.5506 0 1.0407.094 1.4704.282.4297.1835.79.4409 1.0809.7721.2954.3312.5192.7229.6714 1.1749.1522.4476.2283.9377.2283 1.4704v.141c0 .5281-.0761 1.0182-.2283 1.4703-.1522.4476-.376.8392-.6714 1.1749-.2909.3312-.649.5886-1.0742.7721s-.9131.2753-1.4636.2753c-.5506 0-1.0407-.0918-1.4704-.2753-.4252-.1835-.7855-.4409-1.0809-.7721-.2909-.3357-.5125-.7273-.6647-1.1749-.1522-.4521-.2283-.9422-.2283-1.4703zm1.9336-.141v.141c0 .3043.0269.5885.0806.8526s.1388.4968.2551.6983c.1209.1969.2775.3513.47.4632s.4275.1679.705.1679c.2685 0 .499-.056.6915-.1679s.3469-.2663.4632-.4632c.1164-.2015.2015-.4342.2552-.6983.0582-.2641.0873-.5483.0873-.8526v-.141c0-.2955-.0291-.573-.0873-.8326-.0537-.264-.141-.4968-.2619-.6982-.1163-.2059-.2708-.367-.4632-.4834-.1925-.1164-.4252-.1746-.6983-.1746-.273 0-.5057.0582-.6982.1746-.188.1164-.3424.2775-.4633.4834-.1163.2014-.2014.4342-.2551.6982-.0537.2596-.0806.5371-.0806.8326zm10.4267 2.1148v-8.728h1.947v10.3125h-1.7523zm-4.5923-1.9604v-.141c0-.555.0627-1.0586.188-1.5106.1253-.4566.3088-.8482.5505-1.175.2417-.3267.5394-.5796.893-.7586.3536-.1791.7564-.2686 1.2085-.2686.4252 0 .7967.0895 1.1145.2686.3222.179.5953.4341.8191.7654.2282.3267.4117.7139.5505 1.1615.1387.4431.2395.9287.3021 1.4569v.3088c-.0626.5058-.1634.9757-.3021 1.4099-.1388.4342-.3223.8146-.5505 1.1414-.2238.3222-.4969.5729-.8191.7519-.3223.1791-.6983.2686-1.128.2686-.452 0-.8549-.0918-1.2085-.2753-.3491-.1835-.6445-.4409-.8862-.7721-.2372-.3312-.4185-.7206-.5438-1.1682s-.188-.9355-.188-1.4636zm1.9336-.141v.141c0 .2999.0224.5796.0671.8392.0493.2596.1276.4901.235.6915.1119.197.2551.3514.4297.4633.179.1074.3961.1611.6512.1611.3313 0 .6043-.0738.8191-.2215.2149-.1522.3782-.3603.4901-.6244.1164-.2641.1836-.5685.2015-.9131v-.8795c-.0135-.282-.0537-.5349-.1209-.7587-.0626-.2283-.1566-.423-.282-.5841-.1208-.1611-.273-.2865-.4565-.376-.179-.0895-.3917-.1342-.6378-.1342-.2507 0-.4655.0581-.6446.1745-.179.1119-.3245.2663-.4364.4633-.1074.1969-.188.4297-.2417.6982-.0492.2641-.0738.5505-.0738.8594zm10.0372 2.0477v-3.2361c0-.2327-.038-.4319-.1141-.5975-.0761-.1701-.1947-.3021-.3559-.3961-.1566-.094-.3603-.141-.6109-.141-.2149 0-.4006.038-.5573.1141-.1566.0716-.2775.1768-.3625.3156-.0851.1343-.1276.2931-.1276.4767h-1.9336c0-.3089.0716-.602.2149-.8796.1432-.2775.3513-.5214.6244-.7318.273-.2148.5975-.3827.9735-.5035.3804-.1209.8056-.1813 1.2756-.1813.564 0 1.0653.094 1.5039.282.4387.188.7833.47 1.0339.8459.2552.376.3827.846.3827 1.41v3.1085c0 .3983.0247.7251.0739.9802.0492.2507.1208.47.2148.658v.1141h-1.9537c-.094-.1969-.1656-.4431-.2148-.7385-.0448-.2999-.0672-.5998-.0672-.8997zm.2551-2.7862.0135 1.0943h-1.081c-.2551 0-.4766.0291-.6646.0873s-.3424.141-.4633.2484c-.1208.103-.2104.2238-.2685.3626-.0538.1387-.0806.2909-.0806.4565s.038.3156.1141.4498c.0761.1298.1858.2328.329.3089.1432.0716.3111.1074.5035.1074.291 0 .5439-.0582.7587-.1746.2149-.1163.3805-.2596.4968-.4297.1209-.17.1835-.3312.188-.4834l.5103.8191c-.0716.1836-.1701.3738-.2954.5707-.1209.197-.2753.3827-.4633.5573-.188.1701-.414.311-.6781.4229-.2641.1075-.5774.1612-.9399.1612-.461 0-.8795-.0918-1.2555-.2753-.3715-.188-.6669-.4453-.8863-.7721-.2148-.3312-.3222-.7072-.3222-1.1279 0-.3805.0716-.7184.2148-1.0138.1433-.2954.3536-.5438.6311-.7452.282-.2059.6334-.3604 1.0541-.4633.4207-.1074.9086-.1611 1.4636-.1611zm6.7408-2.84v1.3696h-4.2298v-1.3696zm-3.1824-1.7926h1.9336v6.8683c0 .2103.0268.3715.0806.4834.0581.1119.1432.1902.2551.235.1119.0402.2529.0604.423.0604.1208 0 .2282-.0045.3222-.0134.0985-.0135.1813-.0269.2484-.0403l.0067 1.4233c-.1656.0537-.3446.0962-.5371.1276-.1924.0313-.405.047-.6378.047-.4252 0-.7967-.0694-1.1145-.2082-.3133-.1432-.555-.3715-.7251-.6848s-.2551-.7251-.2551-1.2353zm8.2043 7.4188v-3.2361c0-.2327-.038-.4319-.1141-.5975-.0761-.1701-.1947-.3021-.3558-.3961-.1567-.094-.3603-.141-.611-.141-.2148 0-.4006.038-.5572.1141-.1567.0716-.2776.1768-.3626.3156-.085.1343-.1276.2931-.1276.4767h-1.9335c0-.3089.0716-.602.2148-.8796.1432-.2775.3514-.5214.6244-.7318.273-.2148.5975-.3827.9735-.5035.3804-.1209.8057-.1813 1.2756-.1813.564 0 1.0653.094 1.5039.282.4387.188.7833.47 1.034.8459.2551.376.3827.846.3827 1.41v3.1085c0 .3983.0246.7251.0738.9802.0492.2507.1209.47.2149.658v.1141h-1.9538c-.094-.1969-.1656-.4431-.2148-.7385-.0448-.2999-.0672-.5998-.0672-.8997zm.2552-2.7862.0134 1.0943h-1.0809c-.2552 0-.4767.0291-.6647.0873s-.3424.141-.4633.2484c-.1208.103-.2103.2238-.2685.3626-.0537.1387-.0806.2909-.0806.4565s.0381.3156.1141.4498c.0761.1298.1858.2328.329.3089.1433.0716.3111.1074.5036.1074.2909 0 .5438-.0582.7586-.1746.2149-.1163.3805-.2596.4969-.4297.1208-.17.1835-.3312.1879-.4834l.5103.8191c-.0716.1836-.1701.3738-.2954.5707-.1209.197-.2753.3827-.4633.5573-.188.1701-.414.311-.6781.4229-.264.1075-.5774.1612-.9399.1612-.461 0-.8795-.0918-1.2555-.2753-.3715-.188-.6669-.4453-.8862-.7721-.2149-.3312-.3223-.7072-.3223-1.1279 0-.3805.0716-.7184.2148-1.0138.1433-.2954.3536-.5438.6312-.7452.2819-.2059.6333-.3604 1.054-.4633.4208-.1074.9086-.1611 1.4637-.1611z" fill="#fff"/><path d="m40.0007 20.8333c-9.2143 0-16.6667 7.4004-16.6667 16.5504 0 12.4128 16.6667 30.7364 16.6667 30.7364s16.6666-18.3236 16.6666-30.7364c0-9.15-7.4524-16.5504-16.6666-16.5504zm0 22.4612c-3.2858 0-5.9524-2.648-5.9524-5.9108s2.6666-5.9109 5.9524-5.9109c3.2857 0 5.9523 2.6481 5.9523 5.9109s-2.6666 5.9108-5.9523 5.9108z" fill="#428542"/></svg>