<svg width="80" height="120" viewBox="0 0 80 120" fill="none" xmlns="http://www.w3.org/2000/svg">
<path d="M59.5859 1L79 20.4141V119H1V1H59.5859Z" fill="white" stroke="#0065BD" stroke-width="2"/>
<path d="M80 20L60 0V20H80Z" fill="#0065BD"/>
<rect x="10" y="60" width="59.9997" height="5" fill="#0065BD"/>
<rect x="10" y="70" width="59.9997" height="5" fill="#0065BD"/>
<rect x="10" y="80" width="30" height="5" fill="#0065BD"/>
<rect x="10" y="28" width="60" height="27" fill="#0065BD"/>
<path d="M34.4714 41.4888V42.0784C34.4714 43.024 34.3433 43.8728 34.0869 44.6248C33.8306 45.3767 33.4688 46.0176 33.0017 46.5474C32.5346 47.0715 31.9763 47.4731 31.3269 47.7522C30.6832 48.0313 29.9683 48.1709 29.1821 48.1709C28.4017 48.1709 27.6868 48.0313 27.0374 47.7522C26.3936 47.4731 25.8354 47.0715 25.3625 46.5474C24.8897 46.0176 24.5223 45.3767 24.2603 44.6248C24.0039 43.8728 23.8757 43.024 23.8757 42.0784V41.4888C23.8757 40.5374 24.0039 39.6886 24.2603 38.9424C24.5166 38.1904 24.8783 37.5496 25.3455 37.0198C25.8183 36.49 26.3765 36.0855 27.0203 35.8064C27.6697 35.5273 28.3846 35.3877 29.165 35.3877C29.9512 35.3877 30.6661 35.5273 31.3098 35.8064C31.9592 36.0855 32.5175 36.49 32.9846 37.0198C33.4574 37.5496 33.822 38.1904 34.0784 38.9424C34.3404 39.6886 34.4714 40.5374 34.4714 41.4888ZM31.8823 42.0784V41.4717C31.8823 40.8109 31.8225 40.2298 31.7029 39.7285C31.5833 39.2272 31.4067 38.8057 31.1731 38.4639C30.9395 38.1221 30.6547 37.8657 30.3186 37.6948C29.9825 37.5182 29.598 37.4299 29.165 37.4299C28.7321 37.4299 28.3476 37.5182 28.0115 37.6948C27.6811 37.8657 27.3991 38.1221 27.1655 38.4639C26.9377 38.8057 26.7639 39.2272 26.6443 39.7285C26.5247 40.2298 26.4648 40.8109 26.4648 41.4717V42.0784C26.4648 42.7335 26.5247 43.3145 26.6443 43.8215C26.7639 44.3228 26.9405 44.7472 27.1741 45.0947C27.4076 45.4365 27.6925 45.6957 28.0286 45.8723C28.3647 46.0489 28.7492 46.1372 29.1821 46.1372C29.6151 46.1372 29.9996 46.0489 30.3357 45.8723C30.6718 45.6957 30.9538 45.4365 31.1816 45.0947C31.4095 44.7472 31.5833 44.3228 31.7029 43.8215C31.8225 43.3145 31.8823 42.7335 31.8823 42.0784ZM40.1367 48H37.428L37.4451 46.0005H40.1367C40.8089 46.0005 41.3757 45.8495 41.8372 45.5476C42.2986 45.24 42.6461 44.7928 42.8796 44.2061C43.1189 43.6193 43.2385 42.9101 43.2385 42.0784V41.4717C43.2385 40.8337 43.1702 40.2725 43.0334 39.7883C42.9024 39.3041 42.7059 38.8968 42.4438 38.5664C42.1818 38.236 41.8599 37.9882 41.4783 37.823C41.0966 37.6521 40.658 37.5667 40.1624 37.5667H37.3767V35.5586H40.1624C40.9941 35.5586 41.7546 35.701 42.4438 35.9858C43.1388 36.265 43.7398 36.6666 44.2468 37.1907C44.7538 37.7148 45.144 38.3414 45.4175 39.0706C45.6966 39.794 45.8362 40.6001 45.8362 41.4888V42.0784C45.8362 42.9613 45.6966 43.7674 45.4175 44.4966C45.144 45.2257 44.7538 45.8524 44.2468 46.3765C43.7455 46.8949 43.1445 47.2965 42.4438 47.5813C41.7489 47.8604 40.9798 48 40.1367 48ZM38.8806 35.5586V48H36.3171V35.5586H38.8806ZM52.6807 35.5586V48H50.1257V35.5586H52.6807ZM56.5088 35.5586V37.5667H46.3574V35.5586H56.5088Z" fill="white"/>
</svg>
