<svg fill="none" height="120" viewBox="0 0 80 120" width="80" xmlns="http://www.w3.org/2000/svg"><path d="m1 119v-118h58.5858l19.4142 19.4142v98.5858z" fill="#fff" stroke="#0065bd" stroke-width="2"/><g fill="#0065bd"><path d="m80 20-20-20v20z"/><path d="m10 60h59.9997v5h-59.9997z"/><path d="m10 70h59.9997v5h-59.9997z"/><path d="m10 80h30v5h-30z"/><path d="m10 28h60v27h-60z"/></g><path d="m29.5068 35.5586v12.4414h-2.5549v-12.4414zm3.8282 0v2.0081h-10.1514v-2.0081zm4.7595 12.6123c-.7178 0-1.3615-.1139-1.9312-.3418-.5696-.2336-1.0538-.5554-1.4526-.9656-.3931-.4101-.695-.8858-.9058-1.427-.2107-.5469-.3161-1.1279-.3161-1.7431v-.3418c0-.7007.0997-1.3416.299-1.9226.1994-.5811.4843-1.0852.8545-1.5125.376-.4272.8317-.7548 1.3672-.9827.5355-.2335 1.1393-.3503 1.8115-.3503.6552 0 1.2362.1082 1.7432.3247s.9314.5241 1.2732.9229c.3475.3987.6095.8772.7861 1.4355.1766.5526.2649 1.1678.2649 1.8457v1.0254h-7.3486v-1.6406h4.9304v-.188c0-.3418-.0626-.6466-.188-.9143-.1196-.2735-.3019-.4899-.5468-.6494-.245-.1595-.5583-.2393-.94-.2393-.3247 0-.6038.0712-.8374.2136s-.4244.3418-.5725.5982c-.1424.2563-.2507.5582-.3247.9057-.0684.3418-.1025.7178-.1025 1.128v.3418c0 .3702.0512.712.1538 1.0254.1082.3133.2592.5839.4528.8117.1994.2279.4387.4045.7178.5298.2848.1253.6067.188.9656.188.4443 0 .8573-.0855 1.239-.2564.3874-.1766.7206-.4414.9998-.7946l1.1962 1.2988c-.1936.2791-.4585.5469-.7946.8032-.3304.2564-.7292.4671-1.1963.6323-.4671.1595-.9998.2393-1.5979.2393zm7.1777-9.4165 1.5296 2.8113 1.5722-2.8113h2.6233l-2.6147 4.5203 2.7343 4.7253h-2.6318l-1.6663-2.9736-1.6662 2.9736h-2.6318l2.7343-4.7253-2.6147-4.5203zm11.4502 0v1.7432h-5.3833v-1.7432zm-4.0503-2.2815h2.461v8.7415c0 .2677.0341.4728.1025.6152.0741.1424.1823.2421.3247.2991.1424.0512.3219.0769.5383.0769.1538 0 .2906-.0057.4102-.0171.1253-.0171.2307-.0342.3162-.0513l.0085 1.8115c-.2108.0684-.4386.1225-.6836.1624s-.5155.0598-.8118.0598c-.5411 0-1.014-.0883-1.4184-.2649-.3988-.1823-.7064-.4728-.9229-.8716-.2164-.3987-.3247-.9228-.3247-1.5722z" fill="#fff"/></svg>