<svg fill="none" height="120" viewBox="0 0 80 120" width="80" xmlns="http://www.w3.org/2000/svg"><path d="m1 119v-118h58.5858l19.4142 19.4142v98.5858z" fill="#fff" stroke="#0065bd" stroke-width="2"/><g fill="#0065bd"><path d="m80 20-20-20v20z"/><path d="m10 60h59.9997v5h-59.9997z"/><path d="m10 70h59.9997v5h-59.9997z"/><path d="m10 80h30v5h-30z"/><path d="m10 28h60v27h-60z"/></g><path d="m23.6023 46.0261 2.478-10.4675h1.3843l.3162 1.7432-2.6404 10.6982h-1.4868zm-1.2732-10.4675 2.0508 10.4675-.1709 1.9739h-1.6577l-2.76-12.4414zm7.6306 10.4248 2.0252-10.4248h2.5378l-2.7515 12.4414h-1.6577zm-1.7175-10.4248 2.4951 10.5102-.0684 1.9312h-1.4868l-2.6574-10.7068.3418-1.7346zm6.853 7.9126v-.1795c0-.6778.0969-1.3016.2905-1.8713.1937-.5753.4757-1.0738.846-1.4954.3703-.4215.826-.7491 1.3672-.9826.5412-.2393 1.1621-.3589 1.8628-.3589s1.3244.1196 1.8713.3589c.5469.2335 1.0055.5611 1.3757.9826.376.4216.6608.9201.8545 1.4954.1937.5697.2906 1.1935.2906 1.8713v.1795c0 .6722-.0969 1.296-.2906 1.8713-.1937.5697-.4785 1.0681-.8545 1.4954-.3702.4215-.826.7491-1.3671.9827-.5412.2335-1.1622.3503-1.8628.3503-.7007 0-1.3245-.1168-1.8714-.3503-.5412-.2336-.9997-.5612-1.3757-.9827-.3703-.4273-.6523-.9257-.846-1.4954-.1936-.5753-.2905-1.1991-.2905-1.8713zm2.461-.1795v.1795c0 .3874.0341.7491.1025 1.0852s.1766.6323.3247.8887c.1538.2506.3532.4472.5981.5896.245.1424.5441.2136.8973.2136.3418 0 .6351-.0712.8801-.2136.2449-.1424.4415-.339.5896-.5896.1481-.2564.2563-.5526.3247-.8887.074-.3361.1111-.6978.1111-1.0852v-.1795c0-.3759-.0371-.7291-.1111-1.0595-.0684-.3361-.1794-.6323-.3333-.8887-.1481-.262-.3446-.4671-.5896-.6152-.2449-.1481-.5411-.2222-.8886-.2222s-.6437.0741-.8887.2222c-.2393.1481-.4358.3532-.5896.6152-.1481.2564-.2563.5526-.3247.8887-.0684.3304-.1025.6836-.1025 1.0595zm10.2709-2.5207v7.229h-2.4609v-9.2456h2.3157zm2.7857-2.0764-.0427 2.2815c-.1197-.0171-.2649-.0314-.4358-.0428-.1652-.017-.3162-.0256-.4529-.0256-.3475 0-.6494.0456-.9058.1367-.2506.0855-.4614.2137-.6323.3846-.1652.1709-.2905.3788-.376.6237-.0797.245-.1253.5241-.1367.8374l-.4956-.1538c0-.5981.0598-1.1478.1795-1.6491.1196-.507.2933-.9485.5212-1.3245.2336-.376.5184-.6665.8545-.8716s.7206-.3076 1.1536-.3076c.1367 0 .2762.0114.4187.0342.1424.0171.2591.0427.3503.0769zm6.4514 7.2888v-11.1084h2.478v13.125h-2.2302zm-5.8447-2.4951v-.1795c0-.7063.0797-1.3472.2392-1.9226.1595-.581.3931-1.0795.7007-1.4953.3076-.4159.6865-.7377 1.1365-.9656s.9627-.3418 1.5381-.3418c.5412 0 1.014.1139 1.4184.3418.4102.2279.7577.5526 1.0425.9741.2905.4159.5241.9086.7007 1.4783.1766.564.3048 1.182.3845 1.8542v.3931c-.0797.6437-.2079 1.2419-.3845 1.7944-.1766.5526-.4102 1.0368-.7007 1.4527-.2848.4101-.6323.7291-1.0425.957-.4101.2279-.8886.3418-1.4355.3418-.5754 0-1.0881-.1168-1.5381-.3503-.4443-.2336-.8203-.5612-1.1279-.9827-.3019-.4216-.5327-.9172-.6922-1.4868-.1595-.5697-.2392-1.1906-.2392-1.8628zm2.4609-.1795v.1795c0 .3817.0285.7377.0855 1.0681.0626.3304.1623.6238.299.8801.1425.2507.3247.4472.5469.5896.2279.1367.5042.2051.8289.2051.4215 0 .769-.094 1.0425-.282.2734-.1937.4813-.4586.6237-.7947.1481-.3361.2336-.7234.2564-1.1621v-1.1194c-.0171-.3588-.0684-.6807-.1538-.9655-.0798-.2906-.1994-.5384-.3589-.7434-.1538-.2051-.3475-.3646-.5811-.4786-.2278-.1139-.4984-.1709-.8117-.1709-.319 0-.5925.0741-.8203.2222-.2279.1424-.4131.339-.5555.5896-.1367.2507-.2392.5469-.3076.8887-.0626.3361-.094.7007-.094 1.0937z" fill="#fff"/></svg>