<svg fill="none" height="120" viewBox="0 0 80 120" width="80" xmlns="http://www.w3.org/2000/svg"><path d="m1 119v-118.000244h58.5858l19.4142 19.414244v98.586z" fill="#fff" stroke="#5e5e5e" stroke-width="2"/><g fill="#5e5e5e"><path d="m80 19.9998-20-20.00004414v20.00004414z"/><path d="m10 59.9998h59.9997v5h-59.9997z"/><path d="m10 69.9998h59.9997v5h-59.9997z"/><path d="m10 79.9998h30v5h-30z"/><path d="m10 27.9998h60v27h-60z"/></g><path d="m25.2686 35.5583 2.3413 4.3409 2.3413-4.3409h2.9309l-3.6145 6.1695 3.7085 6.272h-2.9566l-2.4096-4.4263-2.4097 4.4263h-2.9736l3.717-6.272-3.623-6.1695zm10.1684 0h2.1704l3.1958 9.1346 3.1958-9.1346h2.1704l-4.4946 12.4415h-1.7432zm-1.1706 0h2.1618l.3931 8.9039v3.5376h-2.5549zm10.9118 0h2.1704v12.4415h-2.5634v-3.5376zm12.4158 10.4419v1.9996h-6.2634v-1.9996zm-5.4346-10.4419v12.4415h-2.5635v-12.4415z" fill="#fff"/></svg>