<?xml version="1.0" encoding="utf-8"?><svg viewBox="0 0 40 40" xmlns="http://www.w3.org/2000/svg" xmlns:xlink="http://www.w3.org/1999/xlink"><style>:root>svg{display:none}:root>svg:target{display:block}</style><svg viewBox="0 0 24 24" id="arrow_upward" xmlns="http://www.w3.org/2000/svg"><path d="M0 0h24v24H0V0z" fill="none"/><path d="m4 12 1.41 1.41L11 7.83V20h2V7.83l5.58 5.59L20 12l-8-8-8 8z"/></svg><svg viewBox="0 0 24 24" id="calendar_today" xmlns="http://www.w3.org/2000/svg"><path d="M0 0h24v24H0z" fill="none"/><path d="M20 3h-1V1h-2v2H7V1H5v2H4c-1.1 0-2 .9-2 2v16c0 1.1.9 2 2 2h16c1.1 0 2-.9 2-2V5c0-1.1-.9-2-2-2zm0 18H4V8h16v13z"/></svg><svg viewBox="0 -960 960 960" id="cancel" xmlns="http://www.w3.org/2000/svg"><path d="m336-280 144-144 144 144 56-56-144-144 144-144-56-56-144 144-144-144-56 56 144 144-144 144 56 56ZM480-80q-83 0-156-31.5T197-197q-54-54-85.5-127T80-480q0-83 31.5-156T197-763q54-54 127-85.5T480-880q83 0 156 31.5T763-763q54 54 85.5 127T880-480q0 83-31.5 156T763-197q-54 54-127 85.5T480-80Z"/></svg><svg viewBox="0 0 24 24" id="check_circle" xmlns="http://www.w3.org/2000/svg"><path d="M0 0h24v24H0z" fill="none"/><path d="M12 2C6.48 2 2 6.48 2 12s4.48 10 10 10 10-4.48 10-10S17.52 2 12 2zm-2 15-5-5 1.41-1.41L10 14.17l7.59-7.59L19 8l-9 9z"/></svg><svg data-name="Layer 1" viewBox="0 0 40 40" id="checkbox" xmlns="http://www.w3.org/2000/svg"><path style="fill:#333" d="m5.33 21.5 10.01 10 19-19-4-4-15 15-6-6-4.01 4z"/></svg><svg viewBox="0 0 24 24" id="chevron_left" xmlns="http://www.w3.org/2000/svg"><path d="M0 0h24v24H0z" fill="none"/><path d="M15.41 7.41 14 6l-6 6 6 6 1.41-1.41L10.83 12z"/></svg><svg viewBox="0 0 24 24" id="chevron_right" xmlns="http://www.w3.org/2000/svg"><path d="M0 0h24v24H0z" fill="none"/><path d="M10 6 8.59 7.41 13.17 12l-4.58 4.59L10 18l6-6z"/></svg><svg viewBox="0 0 24 24" id="close" xmlns="http://www.w3.org/2000/svg"><path d="M0 0h24v24H0z" fill="none"/><path d="M19 6.41 17.59 5 12 10.59 6.41 5 5 6.41 10.59 12 5 17.59 6.41 19 12 13.41 17.59 19 19 17.59 13.41 12z"/></svg><svg viewBox="0 0 24 24" id="description" xmlns="http://www.w3.org/2000/svg"><path d="M0 0h24v24H0z" fill="none"/><path d="M14 2H6c-1.1 0-1.99.9-1.99 2L4 20c0 1.1.89 2 1.99 2H18c1.1 0 2-.9 2-2V8l-6-6zm2 16H8v-2h8v2zm0-4H8v-2h8v2zm-3-5V3.5L18.5 9H13z"/></svg><svg viewBox="0 0 24 24" style="enable-background:new 0 0 24 24" xml:space="preserve" id="double_chevron_left" xmlns="http://www.w3.org/2000/svg"><path d="M18.4 16.6 13.8 12l4.6-4.6L17 6l-6 6 6 6 1.4-1.4z"/><path d="M12.4 16.6 7.8 12l4.6-4.6L11 6l-6 6 6 6 1.4-1.4z"/></svg><svg viewBox="0 0 24 24" style="enable-background:new 0 0 24 24" xml:space="preserve" id="double_chevron_right" xmlns="http://www.w3.org/2000/svg"><path d="m5.6 7.4 4.6 4.6-4.6 4.6L7 18l6-6-6-6-1.4 1.4z"/><path d="m11.6 7.4 4.6 4.6-4.6 4.6L13 18l6-6-6-6-1.4 1.4z"/></svg><svg viewBox="0 0 24 24" id="error" xmlns="http://www.w3.org/2000/svg"><path d="M0 0h24v24H0z" fill="none"/><path d="M12 2C6.48 2 2 6.48 2 12s4.48 10 10 10 10-4.48 10-10S17.52 2 12 2zm1 15h-2v-2h2v2zm0-4h-2V7h2v6z"/></svg><svg viewBox="0 0 24 24" id="expand_less" xmlns="http://www.w3.org/2000/svg"><path d="M0 0h24v24H0z" fill="none"/><path d="m12 8-6 6 1.41 1.41L12 10.83l4.59 4.58L18 14z"/></svg><svg viewBox="0 0 24 24" id="expand_more" xmlns="http://www.w3.org/2000/svg"><path d="M0 0h24v24H0z" fill="none"/><path d="M16.59 8.59 12 13.17 7.41 8.59 6 10l6 6 6-6z"/></svg><svg viewBox="0 0 24 24" id="list" xmlns="http://www.w3.org/2000/svg"><g fill="none"><path d="M0 0h24v24H0V0z"/><path d="M0 0h24v24H0V0z" opacity=".87"/></g><path d="M3 13h2v-2H3v2zm0 4h2v-2H3v2zm0-8h2V7H3v2zm4 4h14v-2H7v2zm0 4h14v-2H7v2zM7 7v2h14V7H7zm-4 6h2v-2H3v2zm0 4h2v-2H3v2zm0-8h2V7H3v2zm4 4h14v-2H7v2zm0 4h14v-2H7v2zM7 7v2h14V7H7z"/></svg><svg viewBox="0 0 24 24" id="menu" xmlns="http://www.w3.org/2000/svg"><path d="M0 0h24v24H0z" fill="none"/><path d="M3 18h18v-2H3v2zm0-5h18v-2H3v2zm0-7v2h18V6H3z"/></svg><svg viewBox="0 0 24 24" id="priority_high" xmlns="http://www.w3.org/2000/svg"><path d="M0 0h24v24H0z" fill="none"/><circle cx="12" cy="19" r="2"/><path d="M10 3h4v12h-4z"/></svg><svg data-name="Layer 1" viewBox="0 0 40 40" id="radio" xmlns="http://www.w3.org/2000/svg"><circle cx="20" cy="19.57" r="10" style="fill:#333"/></svg><svg viewBox="0 0 24 24" id="search" xmlns="http://www.w3.org/2000/svg"><path d="M0 0h24v24H0z" fill="none"/><path d="M15.5 14h-.79l-.28-.27A6.471 6.471 0 0 0 16 9.5 6.5 6.5 0 1 0 9.5 16c1.61 0 3.09-.59 4.23-1.57l.27.28v.79l5 4.99L20.49 19l-4.99-5zm-6 0C7.01 14 5 11.99 5 9.5S7.01 5 9.5 5 14 7.01 14 9.5 11.99 14 9.5 14z"/></svg></svg>