<?xml version="1.0" encoding="utf-8"?><svg viewBox="0 0 69.5 70" xmlns="http://www.w3.org/2000/svg" xmlns:xlink="http://www.w3.org/1999/xlink"><style>:root>svg{display:none}:root>svg:target{display:block}</style><svg data-name="Layer 1" viewBox="0 0 21 21" id="bang-21" xmlns="http://www.w3.org/2000/svg"><path d="M9.31 15.53L8.28 5V.12h4.3V5l-1 10.54zm-.86 5.35v-4h4v4z"/></svg><svg id="close-21" data-name="Layer 1" viewBox="0 0 21 21" xmlns="http://www.w3.org/2000/svg"><defs><style>.bcls-1{fill:#231f20}</style></defs><path class="bcls-1" d="M2.5.5l-2 2 8 8-8 8 2 2 8-8 8 8 2-2-8-8 8-8-2-2-8 8-8-8z"/></svg><svg id="menu-21" data-name="Layer 1" viewBox="0 0 21 21" xmlns="http://www.w3.org/2000/svg"><defs><style>.ccls-1{fill:#231f20}</style></defs><path class="ccls-1" d="M-.01 1h21v4h-21zM-.01 15h21v4h-21zM-.01 8h21v4h-21z"/></svg><svg data-name="Layer 1" viewBox="0 0 69.5 70" id="search" xmlns="http://www.w3.org/2000/svg"><path d="M69.5 63.5L52.29 46.29a29.11 29.11 0 10-6.59 6.41L63 70zM7 29a22 22 0 1122 22A22 22 0 017 29z"/></svg></svg>